<!-- icon666.com - MILLIONS vector ICONS FREE --><svg id="Layer_1" viewBox="0 0 100 100" xmlns="http://www.w3.org/2000/svg"><path d="m16.6 86.48c3.38 0 15.97-3.78 18.91-4.68 2.54.86 14.53 4.68 25.56 4.68 12.19 0 22.46-4.11 22.9-4.28.57-.23.94-.78.94-1.39v-19.33c0-.54-.29-1.04-.76-1.3-7.89-4.47-18.97-4.85-23.38-4.79-.46.03-.95-.18-1.3-.54l-2.11-2.11c-3.09-3.09-7.2-4.79-11.57-4.79-2.56 0-5.12.61-7.4 1.77l-22.46 11.4c-.5.26-.82.77-.82 1.34v22.53c-.01.82.66 1.49 1.49 1.49zm1.5-23.11 21.64-10.99c1.87-.95 3.96-1.45 6.05-1.45 3.57 0 6.92 1.39 9.45 3.91l2.11 2.11c.93.93 2.13 1.43 3.45 1.41 3.14-.03 13.67.16 21.1 3.99v17.39c-2.76.99-11.27 3.72-20.83 3.72-11.63 0-24.91-4.63-25.04-4.67-.16-.06-.33-.09-.5-.09-.15 0-.3.02-.44.07-5.23 1.61-13.26 3.89-16.99 4.52z" fill="#000000" style="fill: rgb(255, 255, 255);"></path><path d="m42.17 56.6c.02-.01 1.64-.9 4.5-.9 1.1 0 3.05 1.78 4.62 3.2 2.25 2.05 4.38 3.98 6.64 3.98 3.25 0 13.71 1.14 13.82 1.16.06.01.11.01.17.01.75 0 1.41-.57 1.49-1.34.09-.82-.5-1.56-1.33-1.65-.44-.05-10.74-1.17-14.15-1.17-1.1 0-3.05-1.78-4.62-3.2-2.25-2.05-4.38-3.98-6.64-3.98-3.67 0-5.77 1.17-6 1.31-.71.42-.95 1.32-.54 2.04s1.32.94 2.04.54z" fill="#000000" style="fill: rgb(255, 255, 255);"></path><path d="m37.45 59.12c.83 0 1.5-.67 1.5-1.5s-.67-1.5-1.5-1.5h-.01c-.83 0-1.5.67-1.5 1.5s.69 1.5 1.51 1.5z" fill="#000000" style="fill: rgb(255, 255, 255);"></path><path d="m16.6 29.84c.83 0 1.5-.67 1.5-1.5 0-4.37 3.56-7.93 7.93-7.93h7.97v2.8c0 .21.04.41.12.59.23.54.76.92 1.38.92h22.37v4.52c0 2.81 2.29 5.09 5.11 5.09h16.81c2.82 0 5.11-2.29 5.11-5.09v-6.79c0-5.38-4.39-9.76-9.78-9.76h-33.46-.01s-.01 0-.01 0h-6.14c-.83 0-1.5.67-1.5 1.5v3.22h-7.97c-6.03 0-10.93 4.9-10.93 10.93 0 .83.67 1.5 1.5 1.5zm65.31-7.39v6.79c0 1.16-.95 2.09-2.11 2.09h-16.81c-1.17 0-2.11-.94-2.11-2.09v-5.99c0-.01 0-.02 0-.03 0-.52-.26-.98-.66-1.24-.24-.16-.53-.26-.84-.26h-16.23v-6.03h31.98c3.74 0 6.78 3.03 6.78 6.76zm-41.76-6.76v6.03h-3.15v-2.79-.01s0-.01 0-.01v-3.21h3.15z" fill="#000000" style="fill: rgb(255, 255, 255);"></path><path d="m60.77 39.88c-.3-.76-1.16-1.15-1.93-.85s-1.16 1.16-.87 1.94c.11.28 2.76 6.9 13.41 6.9s13.31-6.62 13.42-6.9c.3-.77-.09-1.64-.87-1.94-.77-.3-1.64.09-1.94.87-.02.05-2 4.97-10.61 4.97-8.46-.01-10.51-4.76-10.61-4.99z" fill="#000000" style="fill: rgb(255, 255, 255);"></path><path d="m71.39 42.77c7.39 0 9.26-4.69 9.34-4.89.29-.76-.09-1.61-.85-1.91-.76-.31-1.63.07-1.95.82-.05.12-1.32 2.98-6.54 2.98-5.19 0-6.47-2.81-6.54-2.98-.3-.76-1.16-1.14-1.93-.85-.77.3-1.16 1.16-.87 1.94.08.21 1.95 4.89 9.34 4.89z" fill="#000000" style="fill: rgb(255, 255, 255);"></path><path d="m76.62 30.24c.83 0 1.5-.67 1.5-1.5s-.67-1.5-1.5-1.5h-.01c-.83 0-1.5.67-1.5 1.5s.68 1.5 1.51 1.5z" fill="#000000" style="fill: rgb(255, 255, 255);"></path><path d="m72.79 30.24c.83 0 1.5-.67 1.5-1.5s-.67-1.5-1.5-1.5h-.01c-.83 0-1.5.67-1.5 1.5s.68 1.5 1.51 1.5z" fill="#000000" style="fill: rgb(255, 255, 255);"></path><path d="m68.96 30.24c.83 0 1.5-.67 1.5-1.5s-.67-1.5-1.5-1.5h-.01c-.83 0-1.5.67-1.5 1.5s.68 1.5 1.51 1.5z" fill="#000000" style="fill: rgb(255, 255, 255);"></path><path d="m65.13 30.24c.83 0 1.5-.67 1.5-1.5s-.67-1.5-1.5-1.5h-.01c-.83 0-1.5.67-1.5 1.5s.69 1.5 1.51 1.5z" fill="#000000" style="fill: rgb(255, 255, 255);"></path></svg>