<!-- icon666.com - MILLIONS vector ICONS FREE --><svg id="Icons" viewBox="0 0 74 74" xmlns="http://www.w3.org/2000/svg"><path d="m21.742 72a.994.994 0 0 1 -.517-.144l-14.764-8.922a1 1 0 0 1 -.339-1.373l.91-1.506a22.567 22.567 0 0 0 3.007-10 13.187 13.187 0 0 1 .261-1.775 14.243 14.243 0 0 1 12.866-10.906l12.058-.974a8.167 8.167 0 0 1 8.12 4.859l14.622-13.15a7.28 7.28 0 0 1 9.45-.271 1.618 1.618 0 0 1 .227 2.3l-16.966 20.2a15.155 15.155 0 0 1 -8.179 5l-5.627 1.292a18.7 18.7 0 0 0 -14.148 14.565 1 1 0 0 1 -.981.805zm-13.391-10.261 12.732 7.694a20.7 20.7 0 0 1 15.341-14.752l5.628-1.288a13.151 13.151 0 0 0 7.094-4.337l16.7-19.893a5.285 5.285 0 0 0 -6.548.43l-15.748 14.167a.994.994 0 0 1 -.466.245h-.015l-.055.01-16.042 2.492a1 1 0 0 1 -.306-1.977l14.913-2.314a6.18 6.18 0 0 0 -6.194-3.825l-12.058.976a12.232 12.232 0 0 0 -11.072 9.333 11.233 11.233 0 0 0 -.222 1.507 24.537 24.537 0 0 1 -3.289 10.882z" fill="#000000" style="fill: rgb(51, 51, 51);"></path><path d="m39.887 39.333a1 1 0 0 1 -.663-1.75l11.622-10.283a6.521 6.521 0 0 1 9.092.4 1 1 0 1 1 -1.453 1.375 4.529 4.529 0 0 0 -6.314-.28l-11.622 10.287a1 1 0 0 1 -.662.251z" fill="#000000" style="fill: rgb(51, 51, 51);"></path><path d="m34.775 29.976a1 1 0 0 1 -.573-.182c-.061-.042-1.52-1.068-3.488-2.786a1 1 0 0 1 1.315-1.508c1.167 1.019 2.159 1.792 2.746 2.234 2.466-1.857 12.044-9.564 12.044-17.157a6.453 6.453 0 0 0 -6.304-6.577 6.172 6.172 0 0 0 -4.942 2.509 1.034 1.034 0 0 1 -1.595 0 6.172 6.172 0 0 0 -4.942-2.509 6.437 6.437 0 0 0 -6.27 5.978 1 1 0 0 1 -1.994-.167 8.45 8.45 0 0 1 8.264-7.811 8.091 8.091 0 0 1 5.739 2.388 8.1 8.1 0 0 1 5.74-2.388 8.454 8.454 0 0 1 8.3 8.578c0 9.714-12.922 18.835-13.472 19.218a1 1 0 0 1 -.568.18z" fill="#000000" style="fill: rgb(51, 51, 51);"></path><path d="m26.08 31.9a1 1 0 0 1 -.573-.18c-.448-.313-10.978-7.749-10.978-15.705a7.03 7.03 0 0 1 6.909-7.13 6.733 6.733 0 0 1 4.642 1.854 6.729 6.729 0 0 1 4.642-1.854 7.03 7.03 0 0 1 6.908 7.13c0 7.956-10.53 15.392-10.978 15.705a1 1 0 0 1 -.572.18zm-4.642-21.016a5.029 5.029 0 0 0 -4.909 5.13c0 5.944 7.409 12.012 9.551 13.642 2.141-1.63 9.55-7.7 9.55-13.642a5.029 5.029 0 0 0 -4.908-5.13 4.805 4.805 0 0 0 -3.845 1.95 1.036 1.036 0 0 1 -1.595 0 4.805 4.805 0 0 0 -3.844-1.95z" fill="#000000" style="fill: rgb(51, 51, 51);"></path></svg>