<!-- icon666.com - MILLIONS vector ICONS FREE --><svg id="Capa_1" enable-background="new 0 0 512.242 512.242" viewBox="0 0 512.242 512.242" xmlns="http://www.w3.org/2000/svg"><g><g><path d="m193.208 353.196h-15.646l12.78-43.003c1.573-5.294-1.443-10.861-6.737-12.434-5.294-1.575-10.861 1.442-12.435 6.737l-16.599 55.852c-.898 3.025-.316 6.298 1.57 8.828 1.888 2.53 4.859 4.021 8.016 4.021h29.051c5.522 0 10-4.477 10-10s-4.478-10.001-10-10.001z"></path><path d="m483.518 332.542h-24.61c-10.474 0-20.783-3.807-31.699-7.838-12.86-4.749-26.159-9.66-41.958-9.66-21.917 0-36.295 11.938-43.625 20.196h-21.501c2.325-7.405 4.358-14.916 6.09-22.458 4.943-9.03 31.151-59.449 31.151-113.107 0-29.501-10.729-60.69-29.435-85.571-20.423-27.164-50.008-46.97-86.184-57.861-3.655-31.547-30.52-56.122-63.031-56.122-32.509 0-59.373 24.573-63.03 56.117-10.8 3.239-21.046 7.249-30.574 12.021-4.938 2.473-6.936 8.481-4.463 13.419 2.474 4.938 8.479 6.937 13.42 4.463 13.093-6.558 27.116-11.261 41.404-14.41 16.799-3.7 33.211 9.523 33.211 26.701v88.461c-.148 15.793-7.226 31.207-19.766 40.99-16.151 12.602-36.801 18.992-61.375 18.992-19.735 0-35.61 10.964-45.911 31.706-.043.087-.079.174-.122.261-.504 1.024-.981 2.047-1.434 3.064-.043.096-.094.194-.136.291-8.895-19.944-19.94-51.047-19.94-82.521 0-19.397 5.539-40.123 15.598-58.361 2.667-4.836.908-10.918-3.928-13.585-4.835-2.667-10.917-.91-13.586 3.927-11.661 21.145-18.084 45.301-18.084 68.019 0 53.581 27.591 103.907 32.98 113.224 10.217 46.724 27.708 86.282 50.643 114.472 7.004 8.606 14.287 17.162 22.697 24.436l-6.029 49.094c-.673 5.481 3.226 10.471 8.707 11.144 5.474.67 10.471-3.224 11.145-8.707l4.692-38.21c16.255 9.496 34.955 15.265 53.859 15.272 18.874-.01 37.514-5.308 53.943-14.499l4.591 37.436c.622 5.069 4.934 8.784 9.913 8.784.406 0 .817-.025 1.23-.075 5.481-.672 9.38-5.662 8.708-11.143l-5.86-47.781c10.235-8.594 18.254-19.634 25.236-30.935 13.053-.718 24.169-8.798 29.274-20.146h35.891c7.327 8.258 21.707 20.202 43.629 20.202 15.799 0 29.098-4.911 41.958-9.66 10.915-4.031 21.226-7.838 31.699-7.838h24.61c3.041 0 5.972-.479 8.725-1.359v.474c0 22.751-18.51 41.26-41.261 41.26h-67.477c-27.019 0-49 21.981-49 49v8c0 5.523 4.478 10 10 10s10-4.477 10-10v-8c0-15.991 13.01-29 29-29h67.477c33.779 0 61.261-27.481 61.261-61.26v-42.593c.001-15.84-12.885-28.726-28.723-28.726zm-171.573-206.418c16.154 21.487 25.42 48.296 25.42 73.552 0 31.546-10.439 62.698-18.851 82.678-9.214-19.636-25.955-35.478-48.691-35.478-24.573 0-45.222-6.39-61.374-18.991-12.423-9.697-19.765-25.186-19.765-40.911v-88.542c0-17.215 16.412-30.403 33.21-26.701 34.95 7.703 68.261 25.41 90.051 54.393zm-133.229-106.003c19.697 0 36.377 13.169 41.696 31.165-15.927-1.507-31.874 5.444-41.729 18.033-9.85-12.558-25.765-19.519-41.663-18.037 5.322-17.995 22-31.161 41.696-31.161zm63.857 413.86c-16.225 16.286-40.976 26.419-63.887 26.419-33.344 0-59.456-20.954-79.55-45.65-20.924-25.719-37.006-62.284-46.562-105.838.652-3.613 2.64-12.856 7.176-21.833 6.867-13.591 15.957-20.198 27.79-20.198 29.132 0 53.922-7.814 73.684-23.227 7.027-5.489 12.931-12.339 17.459-20.012 4.679 7.938 10.766 13.869 17.464 20.012 19.746 15.413 44.533 23.227 73.674 23.227 8.159 0 15.645 3.748 21.168 9.658 10.124 10.715 14.397 27.199 15.564 32.537-1.512 6.502-3.269 12.975-5.255 19.367-6.539-8.329-16.826-13.401-27.428-13.401-18.685 0-33.48 15.81-33.48 34.17v38.86c0 11.555 6.166 22.48 15.812 28.77-3.81 5.922-5.958 8.416-13.629 17.139zm32.032-31.739c-7.546-.093-14.215-6.583-14.215-14.168v-38.884c.01-7.412 5.878-14.075 13.476-14.145 8.033 0 14.86 6.862 14.86 14.861v38.168c.001 7.684-6.437 14.143-14.121 14.168zm34.125-47.001h25.774v26.8h-25.774zm111.549 38.58c-11.728 4.331-22.805 8.421-35.029 8.421-17.041 0-27.239-11.264-30.74-15.944v-35.302c3.536-4.724 13.727-15.951 30.74-15.951 12.225 0 23.302 4.091 35.03 8.421 9.143 3.376 18.519 6.839 28.627 8.325v33.705c-10.107 1.486-19.485 4.949-28.628 8.325zm63.239-9.076h-14.61v-32.202h14.61c4.811 0 8.725 3.914 8.725 8.725v14.753c-.001 4.81-3.915 8.724-8.725 8.724z"></path><path d="m45.52 104.851c2.095 5.028 8.019 7.503 13.061 5.41 5.03-2.088 7.501-8.025 5.409-13.06-2.089-5.028-8.026-7.5-13.06-5.41-5.022 2.085-7.506 8.029-5.41 13.06z"></path></g></g></svg>