<!-- icon666.com - MILLIONS vector ICONS FREE --><svg viewBox="-17 -17 533 533.33506" xmlns="http://www.w3.org/2000/svg"><path d="m500.082031 150.886719c.234375-2.789063-.71875-5.554688-2.617187-7.613281-1.898438-2.054688-4.578125-3.222657-7.382813-3.214844h-179.96875c-2.804687-.007813-5.480469 1.160156-7.378906 3.214844-1.902344 2.058593-2.851563 4.824218-2.621094 7.613281l2.46875 29.167969h-68.984375c-5.109375 0-9.394531 3.847656-9.941406 8.921874-.515625 4.78125-1 9.605469-1.429688 14.601563-1.953124 22.011719-2.730468 44.117187-2.328124 66.207031.320312 8.054688-2.636719 15.894532-8.199219 21.730469-5.636719 5.878906-13.417969 9.214844-21.566407 9.253906-16.199218.09375-29.472656-12.84375-29.796874-29.042969 0-.722656 0-1.449218 0-2.097656 1.230468-24.328125 3.773437-48.570312 7.621093-72.621094l.910157-5.351562c.472656-2.886719-.347657-5.84375-2.246094-8.078125-1.902344-2.234375-4.683594-3.523437-7.613282-3.523437h-128.851562c-16.5625 0-29.992188 13.425781-29.992188 29.992187v219.964844c0 16.566406 13.429688 29.996093 29.992188 29.996093h289.953125v10c0 16.5625 13.429687 29.992188 29.996094 29.992188h99.984375c16.570312 0 29.996094-13.429688 29.996094-29.992188v-79.570312zm-39.996093 319.121093c0 5.519532-4.476563 9.996094-9.996094 9.996094h-99.984375c-5.523438 0-10-4.476562-10-9.996094v-29.996093h119.980469zm-439.925782-39.996093v-9.996094h299.949219v19.996094h-289.953125c-5.519531 0-9.996094-4.476563-9.996094-10zm9.996094-229.960938h117.136719c-2.5625 17.324219-4.359375 33.082031-5.582031 48.269531-3.066407-1.542968-5.890626-3.519531-8.398438-5.871093-7.898438-7.941407-18.636719-12.410157-29.84375-12.410157-11.199219 0-21.9375 4.46875-29.835938 12.410157-4.257812 4.828125-10.386718 7.59375-16.824218 7.59375-6.433594 0-12.5625-2.765625-16.824219-7.59375-5.53125-5.394531-12.355469-9.285157-19.824219-11.285157v-21.117187c0-5.519531 4.476563-9.996094 9.996094-9.996094zm-3.1875 57.578125c7.898438 7.941406 18.636719 12.410156 29.835938 12.410156 11.199218 0 21.9375-4.46875 29.832031-12.410156 4.261719-4.828125 10.394531-7.589844 16.828125-7.589844 6.441406 0 12.566406 2.761719 16.828125 7.589844 5.601562 5.449219 12.515625 9.347656 20.066406 11.328125 0 1-.058594 2.101563 0 3.21875.523437 27.125 22.765625 48.789063 49.894531 48.59375h1.128906c13.214844-.285156 25.769532-5.84375 34.855469-15.449219 9.191407-9.683593 14.128907-22.648437 13.703125-35.992187-.125-5.441406-.125-11.128906-.066406-16.996094 2.542969 1.519531 4.925781 3.289063 7.109375 5.296875 7.898437 7.941406 18.636719 12.410156 29.835937 12.410156 11.207032 0 21.945313-4.46875 29.84375-12.410156.800782-.679687 1.519532-1.25 2.261719-1.859375l11.183594 134.667969v9.582031h-299.949219v-147.496093c2.429688 1.472656 4.710938 3.1875 6.808594 5.105468zm215.683594-57.578125h61.589844l2.78125 33.324219c-4.898438 2.332031-9.414063 5.394531-13.398438 9.074219-4.261719 4.828125-10.386719 7.59375-16.828125 7.59375-6.433594 0-12.566406-2.765625-16.824219-7.59375-5.453125-5.296875-12.140625-9.148438-19.457031-11.199219.390625-8.386719.921875-16.992188 1.667969-25.992188.152344-1.761718.300781-3.488281.46875-5.207031zm78.328125-39.992187h158.234375l-18.328125 219.960937h-121.582031zm139.105469 259.957031h-119.980469v-19.996094h119.980469zm0 0" fill="#000000" style="fill: rgb(255, 255, 255);"></path><path d="m360.105469 270.039062c0 33.632813 17.570312 59.988282 39.992187 59.988282 22.425782 0 39.992188-26.355469 39.992188-59.988282 0-33.636718-17.566406-59.992187-39.992188-59.992187-22.421875 0-39.992187 26.355469-39.992187 59.992187zm39.992187-39.992187c9.441406 0 19.996094 17.09375 19.996094 39.992187 0 22.898438-10.554688 39.992188-19.996094 39.992188-9.4375 0-19.996094-17.09375-19.996094-39.992188 0-22.898437 10.558594-39.992187 19.996094-39.992187zm0 0" fill="#000000" style="fill: rgb(255, 255, 255);"></path><path d="m70.152344 300.035156c0 5.519532-4.476563 9.996094-10 9.996094-5.519532 0-10-4.476562-10-9.996094 0-5.523437 4.480468-10 10-10 5.523437 0 10 4.476563 10 10zm0 0" fill="#000000" style="fill: rgb(255, 255, 255);"></path><path d="m80.148438 360.023438c0 5.523437-4.476563 10-9.996094 10-5.523438 0-10-4.476563-10-10 0-5.519532 4.476562-9.996094 10-9.996094 5.519531 0 9.996094 4.476562 9.996094 9.996094zm0 0" fill="#000000" style="fill: rgb(255, 255, 255);"></path><path d="m110.144531 320.03125c0 5.519531-4.476562 9.996094-10 9.996094-5.519531 0-9.996093-4.476563-9.996093-9.996094 0-5.523438 4.476562-10 9.996093-10 5.523438 0 10 4.476562 10 10zm0 0" fill="#000000" style="fill: rgb(255, 255, 255);"></path><path d="m290.113281 370.023438c0 5.519531-4.476562 9.996093-9.996093 9.996093-5.523438 0-10-4.476562-10-9.996093 0-5.523438 4.476562-10 10-10 5.519531 0 9.996093 4.476562 9.996093 10zm0 0" fill="#000000" style="fill: rgb(255, 255, 255);"></path><path d="m280.117188 320.03125c0 5.519531-4.476563 9.996094-10 9.996094-5.519532 0-9.996094-4.476563-9.996094-9.996094 0-5.523438 4.476562-10 9.996094-10 5.523437 0 10 4.476562 10 10zm0 0" fill="#000000" style="fill: rgb(255, 255, 255);"></path><path d="m220.125 360.023438c0 5.523437-4.476562 10-9.996094 10-5.523437 0-10-4.476563-10-10 0-5.519532 4.476563-9.996094 10-9.996094 5.519532 0 9.996094 4.476562 9.996094 9.996094zm0 0" fill="#000000" style="fill: rgb(255, 255, 255);"></path><path d="m160.136719 370.023438c0 5.519531-4.476563 9.996093-10 9.996093-5.519531 0-9.996094-4.476562-9.996094-9.996093 0-5.523438 4.476563-10 9.996094-10 5.523437 0 10 4.476562 10 10zm0 0" fill="#000000" style="fill: rgb(255, 255, 255);"></path><path d="m190.183594 280.34375c2.664062 0 5.214844-1.058594 7.089844-2.949219 1.878906-1.886719 2.925781-4.445312 2.910156-7.105469v-.25c0-22.832031 1.214844-45.648437 3.636718-68.347656 2.222657-22.785156 5.894532-45.398437 11-67.714844 4.753907-22.265624 11.789063-43.980468 20.996094-64.808593 9.988282-22.347657 23.867188-42.75 40.992188-60.25l.128906-.121094c2.066406-1.878906 2.210938-5.082031.332031-7.148437-1.882812-2.0625-5.085937-2.210938-7.152343-.324219-18.832032 17.921875-34.308594 39.074219-45.679688 62.453125-10.363281 21.304687-18.507812 43.617187-24.308594 66.582031-6.046875 22.75-10.652344 45.867187-13.777344 69.199219-3.320312 23.363281-5.398437 46.890625-6.21875 70.480468v.355469c.03125 5.523438 4.527344 9.980469 10.050782 9.949219zm0 0" fill="#000000" style="fill: rgb(255, 255, 255);"></path></svg>