<!-- icon666.com - MILLIONS vector ICONS FREE --><svg id="Layer_1" enable-background="new 0 0 74 74" viewBox="0 0 74 74" xmlns="http://www.w3.org/2000/svg"><g><path d="m38.83 10.87c-2.51 0-5.09.47-7.45 1.35-8.68 3.24-14.07 11.3-13.71 20.54.1 2.68.5 5.08 1.21 7.32.1.32.4.52.71.52.07 0 .15-.01.23-.04.4-.13.61-.55.49-.94-.67-2.11-1.04-4.38-1.14-6.92-.33-8.58 4.67-16.07 12.74-19.08 2.2-.82 4.59-1.25 6.93-1.25 3.88 0 9.48 1.18 14.15 6.82.26.32.74.36 1.06.1s.36-.74.1-1.06c-5.05-6.08-11.12-7.36-15.32-7.36z" fill="#000000" style="fill: rgb(255, 255, 255);"></path><path d="m61.41 36.87-.15-.25c-.66-1.07-.81-2.38-.4-3.59.21-.62.31-1.28.3-1.91-.15-9.46-3.39-13.97-4.04-14.78-6.64-8.29-16.97-11.12-26.96-7.4-1.74.65-3.36 1.48-4.86 2.44.19-2.21-.47-4.11-1.89-5.27-1.44-1.16-3.44-1.43-5.63-.74-2.08.66-4.11 2.11-5.72 4.09-1.6 1.98-2.6 4.27-2.81 6.45-.22 2.29.45 4.19 1.89 5.36.92.74 2.06 1.12 3.32 1.12.53 0 1.09-.07 1.66-.2-1.4 3.27-2.1 6.9-1.96 10.7.3 7.95 2.9 13.02 6.71 18.18.46.62.68 1.37.61 2.1-.31 3.25-1.42 8.45-4.88 14.72-.2.36-.07.82.29 1.02s.82.07 1.02-.29c3.04-5.49 4.32-10.2 4.84-13.58 1.4-.81 6.09-4.27 4.09-13.36-1.02-4.67 1.56-7.19 4.08-7.93 2.55-.74 5.72.1 6.85 3.17.4 1.09 1.38 1.79 2.48 1.79.71 0 1.38-.28 1.87-.78s.75-1.15.74-1.85c-.04-2.53 1.08-4.04 3.32-4.49 3.3-.66 4.65-2.61 6.07-4.67 1.26-1.81 2.69-3.84 5.72-5.64.82 2.26 1.59 5.5 1.66 9.88.01.47-.07.95-.22 1.41-.54 1.64-.34 3.4.55 4.85l.15.25c1.33 2.15 3.81 6.14 3 7.81-.09.18-.34.71-1.67.87-.43.05-1.74.21-2.32 1.28-.42.79-.31 1.84.29 3.11-.03.04-.36.4-1.9.4-.33 0-.63.22-.72.54s.04.67.32.84c.63.39 1.3 1.04 1.33 1.23 0 0-.07.1-.4.21-.84.29-1.26.7-1.47 1.41-.18.62-.17 1.24-.16 1.78v.25c.01.96-.37 1.86-1.05 2.53-.69.68-1.6 1.04-2.57 1.02-1.96-.04-4.39-.66-6.52-1.64-12.25-6.11-13.82-12.19-13.84-12.28-.09-.4-.49-.66-.89-.57s-.66.49-.57.89c.06.27 1.52 6.39 13.41 12.64-3.35 2.3-5.29 7.75-5.39 8.01-.14.39.07.82.46.96.08.03.16.04.25.04.31 0 .6-.19.71-.5.02-.06 2.2-6.21 5.57-7.71 2.23.99 4.76 1.6 6.82 1.65 1.39.03 2.68-.48 3.66-1.45.97-.96 1.51-2.24 1.5-3.61v-.26c-.01-.48-.02-.92.1-1.33.05-.18.08-.26.52-.41 1.05-.36 1.33-.97 1.38-1.42.06-.56-.22-1.09-.6-1.54.63-.18 1.08-.47 1.35-.88.34-.52.3-1.1.14-1.49-.4-.79-.53-1.42-.36-1.74.14-.25.53-.42 1.17-.5 1.42-.17 2.38-.75 2.84-1.71 1.15-2.4-1.3-6.35-3.09-9.23zm-49.32-16.77c-1.04-.84-1.51-2.28-1.34-4.05.18-1.89 1.06-3.89 2.48-5.65 1.42-1.75 3.19-3.03 5-3.6 1.7-.54 3.2-.37 4.24.47 1.28 1.04 1.69 3.01 1.12 5.3-2.75 2.11-4.97 4.74-6.57 7.74-1.96.82-3.75.76-4.93-.21zm38.95 5.95c-1.41 2.04-2.43 3.51-5.14 4.06-2.97.6-4.58 2.72-4.53 5.99 0 .29-.11.57-.31.77-.21.22-.5.33-.8.33-.47 0-.89-.32-1.07-.81-1.45-3.93-5.47-5.03-8.68-4.09-3.39.99-6.29 4.38-5.12 9.69 1.45 6.62-.87 9.77-2.41 11.07.04-1.02-.26-2.04-.89-2.89-3.64-4.94-6.13-9.77-6.41-17.34-.38-10.12 5.51-18.95 15.01-22.49 7.34-2.73 17.83-2.35 25.26 6.93.15.19.78 1.03 1.48 2.58-3.45 2-5.08 4.31-6.39 6.2z" fill="#000000" style="fill: rgb(255, 255, 255);"></path><path d="m21.63 12.19c.4-1.51.23-2.82-.42-3.35-.49-.4-1.39-.43-2.38-.12-1.42.45-2.89 1.52-4.05 2.95-2.22 2.74-2.59 5.95-1.43 6.88.27.22.65.33 1.12.33.58 0 1.24-.16 1.93-.47.38-.17.55-.61.38-.99s-.62-.55-.99-.38c-.48.22-.96.34-1.32.34-.09 0-.16-.01-.17 0-.22-.44-.15-2.54 1.65-4.76.98-1.21 2.19-2.1 3.33-2.46.4-.13.84-.16.97-.13.08.21.18.84-.07 1.79-.11.4.13.81.53.92.4.09.81-.15.92-.55z" fill="#000000" style="fill: rgb(255, 255, 255);"></path><path d="m47.61 37.54c-.16.09-.35.01-.38-.01-.35-.2-.81-.08-1.01.27-.21.36-.09.82.27 1.03.2.12.56.25.96.25.29 0 .61-.07.92-.25.36-.21.48-.67.27-1.03-.22-.35-.67-.47-1.03-.26z" fill="#000000" style="fill: rgb(255, 255, 255);"></path><path d="m50.06 49.12c-.36.21-.48.67-.26 1.03.21.36.67.48 1.03.26.16-.09.35-.01.38.01.12.07.24.1.37.1.26 0 .51-.13.65-.37.21-.36.09-.82-.26-1.03-.38-.21-1.17-.44-1.91 0z" fill="#000000" style="fill: rgb(255, 255, 255);"></path><path d="m53.08 39.69c.16-.09.35-.01.38.01.12.07.24.1.37.1.26 0 .51-.13.65-.37.21-.36.09-.82-.27-1.03-.35-.21-1.14-.44-1.89 0-.36.21-.48.67-.27 1.03s.67.47 1.03.26z" fill="#000000" style="fill: rgb(255, 255, 255);"></path><path d="m38.09 47.41c-.35-.2-.81-.08-1.01.27-.21.36-.09.82.27 1.03.2.12.56.25.96.25.29 0 .61-.07.92-.25.36-.21.48-.67.27-1.03s-.67-.47-1.03-.27c-.17.1-.35.02-.38 0z" fill="#000000" style="fill: rgb(255, 255, 255);"></path><path d="m45.55 44.16c.09.34.39.56.73.56.06 0 .13-.01.19-.02.39-.1 1.12-.5 1.33-1.33.1-.4-.14-.81-.54-.91s-.81.14-.91.54c-.05.18-.24.25-.27.26-.4.1-.64.5-.53.9z" fill="#000000" style="fill: rgb(255, 255, 255);"></path><path d="m52.92 56.66c-.34-.23-.83-.11-1.06.23-.38-.07-.74.16-.85.53-.12.4.11.81.51.93.1.03.22.05.36.05.39 0 .91-.16 1.29-.73.21-.35.09-.78-.25-1.01z" fill="#000000" style="fill: rgb(255, 255, 255);"></path><path d="m52.56 45.17c.11.06.23.08.34.08.27 0 .54-.15.67-.41.18-.35.53-.46.56-.47.39-.11.63-.51.53-.91s-.51-.64-.91-.54c-.1.03-1.02.29-1.51 1.24-.19.37-.05.82.32 1.01z" fill="#000000" style="fill: rgb(255, 255, 255);"></path><path d="m57.18 44.16c-.18.35-.53.46-.56.47-.4.11-.63.51-.53.91.09.34.39.56.73.56.06 0 .13-.01.19-.02.1-.03 1.02-.29 1.51-1.24.19-.37.04-.82-.33-1.01-.37-.18-.82-.03-1.01.33z" fill="#000000" style="fill: rgb(255, 255, 255);"></path><path d="m39.8 41.36c-.56.15-1.15.67-1.12 1.49.01.4.36.73.76.73h.03c.41-.01.75-.36.73-.77.39-.11.62-.51.51-.91-.1-.4-.51-.64-.91-.54z" fill="#000000" style="fill: rgb(255, 255, 255);"></path><path d="m44.26 48.98c.01.4.36.73.76.73h.03c.41-.01.75-.36.73-.77.39-.11.62-.51.51-.91-.1-.4-.52-.64-.91-.54-.56.14-1.15.67-1.12 1.49z" fill="#000000" style="fill: rgb(255, 255, 255);"></path><path d="m49.03 53.67c-.56.15-1.15.67-1.12 1.49.01.4.36.73.76.73h.03c.41-.01.75-.36.73-.77.39-.11.62-.51.51-.91-.1-.41-.51-.65-.91-.54z" fill="#000000" style="fill: rgb(255, 255, 255);"></path><circle cx="50.44" cy="41.9" r=".75" fill="#000000" style="fill: rgb(255, 255, 255);"></circle><circle cx="43.91" cy="40.74" r=".75" fill="#000000" style="fill: rgb(255, 255, 255);"></circle><circle cx="48.93" cy="46.63" r=".75" fill="#000000" style="fill: rgb(255, 255, 255);"></circle><path d="m47.43 51.05c-.41 0-.75.34-.75.75s.34.76.75.76.76-.34.76-.76-.35-.75-.76-.75z" fill="#000000" style="fill: rgb(255, 255, 255);"></path><circle cx="53.15" cy="53.3" r=".75" fill="#000000" style="fill: rgb(255, 255, 255);"></circle><circle cx="54.12" cy="47.6" r=".75" fill="#000000" style="fill: rgb(255, 255, 255);"></circle><path d="m57.04 39.87c-.41 0-.75.34-.75.76s.34.75.75.75.76-.34.76-.75-.35-.76-.76-.76z" fill="#000000" style="fill: rgb(255, 255, 255);"></path><path d="m61.53 42.82c0-.41-.34-.76-.75-.76s-.75.34-.75.76.34.75.75.75.75-.33.75-.75z" fill="#000000" style="fill: rgb(255, 255, 255);"></path><path d="m41.91 46.5c.41 0 .76-.34.76-.75s-.34-.75-.76-.75-.75.34-.75.75.33.75.75.75z" fill="#000000" style="fill: rgb(255, 255, 255);"></path><circle cx="40.74" cy="51.41" r=".75" fill="#000000" style="fill: rgb(255, 255, 255);"></circle><circle cx="35.35" cy="43.58" r=".75" fill="#000000" style="fill: rgb(255, 255, 255);"></circle><path d="m56.79 35.69c-2.98.14-4.15-.69-4.2-.72-.32-.25-.79-.2-1.05.11-.26.32-.21.79.11 1.06.14.12 1.4 1.07 4.47 1.07.23 0 .48-.01.73-.02.41-.02.73-.37.71-.78-.01-.42-.36-.75-.77-.72z" fill="#000000" style="fill: rgb(255, 255, 255);"></path></g></svg>