<!-- icon666.com - MILLIONS vector ICONS FREE --><svg viewBox="0 0 60 60" xmlns="http://www.w3.org/2000/svg"><g id="039---Spots"><path id="Shape" d="m43 0c-6.6894316.0093266-12.7524851 3.93814141-15.494 10.04-3.6482448.1259546-7.227753 1.0279907-10.5 2.646-8.275-.061-13.283 4.524-14.041 12.389-1.007 10.508 4.452 23.177-2 24.654-.43617784.0284739-.80442032.3345588-.91214815.7581819-.10772782.4236232.06956027.8684372.43914815 1.1018181 1.366 1.288 3.156 5.63 16.663 6.314.3903261 1.2440792 1.5411344 2.0923199 2.845 2.097h9c1.3049423-.0049767 2.4563546-.8545782 2.846-2.1 13.906-.7 15.565-5.388 16.793-6.411.3047544-.261038.4239595-.6789632.3027704-1.0614934-.121189-.3825301-.4592993-.6555736-.8587704-.6935066-4.653-1.038-3.172-7.551-2.265-15.992 8.7053836-1.4726119 14.8320792-9.3675946 14.0972688-18.166023s-8.0862133-15.56777296-16.9152688-15.575977zm-40.188 51.2c6.626-3.15 1.181-15.874 2.143-25.938.673-6.973 5.064-10.736 12.274-10.576.1743118.0034536.3465545-.0382291.5-.121 2.7992086-1.4338752 5.8618091-2.2808544 9-2.489-1.0951484 3.5875144-.9582099 7.4383379.389 10.939-.759-.01-1.61-.015-2.618-.015-4.789 0-6.586-2.736-7.23-4.368-.1153428-.2915749-.3607701-.5121664-.6629526-.5958659-.3021826-.0836994-.626128-.0208145-.8750474.1698659-2.857 2.187-4.261 5.9-4.3 11.316-.5864898-.1853162-1.2215478-.1402614-1.776.126-1.116.563-1.656 1.973-1.656 4.312 0 5.04 2.97 6.513 4.574 6.94.7922865 2.9734696 2.3135065 5.7024543 4.426 7.94v7.052c-1.111-.062-2.2-.15-3.212-.284-7.623-.979-9.794-3.028-10.976-4.408zm22.481-16.5c.3904999.3903819 1.0235001.3903819 1.414 0l5.018-5.019c1.1502808 1.023941 2.4343603 1.8868344 3.817 2.565-.109 3.925-.5 7.5-2.138 10.973-2.093 4.468-5.09 6.734-8.9 6.734-3.84 0-6.846-2.266-8.934-6.733-1.791-3.82-2.15-7.983-2.15-13.45 0-4.219.857-7.226 2.613-9.14 1.118 1.87 3.534 4.37 8.467 4.37 1.444 0 2.57.009 3.53.045.6324457 1.1612071 1.3979321 2.2448351 2.281 3.229l-5.018 5.019c-.3903819.3904999-.3903819 1.0235001 0 1.414zm13.7-1.2c.073 1.978-.319 4.023-2.026 5.038.314933-1.8057858.5004055-3.6317706.555-5.464.4786667.1653333.9676667.3073333 1.467.426zm-27.55-1.813c.0148905 2.2967747.2155448 4.5885817.6 6.853-1.052-.621-2.043-1.912-2.043-4.58 0-2.221.532-2.515.555-2.526.106-.056.421-.01.884.255zm17.557 26.313h-9c-.5522847 0-1-.4477153-1-1v-6.575c3.3796131 2.0576404 7.6263871 2.0514633 11-.016v6.591c0 .5522847-.4477153 1-1 1zm17.206-6.794c-1.182 1.376-3.353 3.423-10.976 4.4-1.039.137-2.116.223-3.23.284v-7.082c2.1009566-2.2241516 3.6091627-4.9407108 4.386-7.9 2.73-.71 4.627-2.978 4.612-7.041.9215248.1324484 1.8548955.1622975 2.783.089-.781 6.992-2.473 14.921 2.425 17.25zm-3.206-19.206c-8.2842712 0-15-6.7157288-15-15 0-8.28427125 6.7157288-15 15-15s15 6.71572875 15 15c-.0093685 8.2803876-6.7196124 14.9906315-15 15z" fill="#000000" style="fill: rgb(255, 255, 255);"></path><path id="Shape" d="m55.561 13.706c-1.715588-6.52052837-8.1350798-10.64424811-14.7785763-9.49338507-6.6434966 1.15086304-11.3018354 7.19361227-10.7241537 13.91126187s6.1992874 11.8763789 12.94173 11.8761232c4.0283171.0014572 7.8291844-1.8667724 10.2886318-5.0571422 2.4594473-3.1903698 3.2989146-7.3415346 2.2723682-11.2368578zm-23.37 1.294h1.992c.8869331.0082663 1.7298051-.3859566 2.292-1.072 1.6583619-1.8609066 4.0323834-2.9251935 6.525-2.9251935s4.8666381 1.0642869 6.525 2.9251935c.5621949.6860434 1.4050669 1.0802663 2.292 1.072h1.992c.1246037.6594358.1885375 1.3288997.191 2h-1.962c-1.5439532.0453611-3.0265396-.6056111-4.038-1.773-1.2773192-1.4171373-3.0956681-2.226157-5.0035-2.226157s-3.7261808.8090197-5.0035 2.226157c-1.0102381 1.1649924-2.4895826 1.8156691-4.031 1.773h-1.962c.0024625-.6711003.0663963-1.3405642.191-2zm10.809-9c4.526551.00731214 8.5873689 2.7843467 10.236 7h-1.419c-.2825184.0050791-.5526354-.1158689-.737-.33-2.0391707-2.3292039-4.984292-3.66512405-8.08-3.66512405s-6.0408293 1.33592015-8.08 3.66512405c-.337.418-.727.331-2.156.331 1.6483105-4.21604641 5.7091999-6.99352659 10.236-7.001zm0 22c-5.2991575-.008487-9.8407977-3.7900358-10.809-9h1.771c2.1542162.0561122 4.2162574-.8740157 5.6-2.526.8966638-.9409912 2.1397037-1.4735252 3.4395-1.4735252s2.5428362.532534 3.4395 1.4735252c1.3827168 1.6516298 3.443706 2.5817814 5.597 2.526h1.771c-.9682023 5.2099642-5.5098425 8.991513-10.809 9z" fill="#000000" style="fill: rgb(255, 255, 255);"></path><circle id="Oval" cx="30" cy="37" r="1" fill="#000000" style="fill: rgb(255, 255, 255);"></circle><circle id="Oval" cx="28" cy="40" r="1" fill="#000000" style="fill: rgb(255, 255, 255);"></circle><circle id="Oval" cx="32" cy="40" r="1" fill="#000000" style="fill: rgb(255, 255, 255);"></circle><circle id="Oval" cx="19" cy="37" r="1" fill="#000000" style="fill: rgb(255, 255, 255);"></circle><circle id="Oval" cx="17" cy="40" r="1" fill="#000000" style="fill: rgb(255, 255, 255);"></circle><circle id="Oval" cx="21" cy="40" r="1" fill="#000000" style="fill: rgb(255, 255, 255);"></circle><path id="Shape" d="m43 17c-1.9943447.0711767-3.6647172 1.5327526-4 3.5 0 3.327 8 3.339 8 0-.3352828-1.9672474-2.0056553-3.4288233-4-3.5zm0 4c-.7059314.0555726-1.4091005-.1371975-1.988-.545.3540814-.806182 1.1124915-1.3612558 1.988-1.455.8684108.101605 1.6269413.6344943 2.017 1.417-.5720879.4469854-1.2946601.65584-2.017.583z" fill="#000000" style="fill: rgb(255, 255, 255);"></path></g></svg>