<!-- icon666.com - MILLIONS vector ICONS FREE --><svg xmlns="http://www.w3.org/2000/svg" viewBox="0 0 512 512"><g id="FLAT"><path d="M264,24h0a71.99987,71.99987,0,0,0-72,71.99994V96l-23.70825,35.56238A8,8,0,0,0,174.94824,144H192v24a16.00008,16.00008,0,0,0,16,16,16,16,0,0,1,16,15.99994V240h72V181.79279a16.00134,16.00134,0,0,1,3.7085-10.243L319.312,148.02563A72.00073,72.00073,0,0,0,336,101.93243V95.99994A71.99987,71.99987,0,0,0,264,24Z" style="fill: rgb(51, 51, 51);" fill="#c6dcf5"></path><path d="M256,480a225.92,225.92,0,0,1-41.47168-3.833l2.94336-15.72656A209.92494,209.92494,0,0,0,256,464a205.89708,205.89708,0,0,0,92.43945-21.6167l7.1211,14.32813A221.764,221.764,0,0,1,256,480Z" style="fill: rgb(51, 51, 51);" fill="#dfdfdf"></path><path d="M428.97852,140.4502a209.04681,209.04681,0,0,0-80.53907-70.8335l7.1211-14.32813a225.07669,225.07669,0,0,1,86.71484,76.26123Z" style="fill: rgb(51, 51, 51);" fill="#dfdfdf"></path><path d="M49.26953,232.87891l-15.90234-1.75782a224.20543,224.20543,0,0,1,139.668-183.25244L178.96484,62.73A208.204,208.204,0,0,0,49.26953,232.87891Z" style="fill: rgb(51, 51, 51);" fill="#dfdfdf"></path><path d="M444.7998,425.6001,429.333,413.99976l25.0664-18.8A103.84849,103.84849,0,0,0,480,256.69312V256h-.438a103.66018,103.66018,0,0,0-25.1626-27.19971L429.333,210.00018,444.7998,198.3999A88.42114,88.42114,0,0,0,480,128H464a71.71608,71.71608,0,0,1-4.16064,24H372.16064A71.71608,71.71608,0,0,1,368,128H352a88.42114,88.42114,0,0,0,35.2002,70.3999L402.667,210.00018l-25.0664,18.80011A103.66018,103.66018,0,0,0,352.438,256H352v.69312a103.84849,103.84849,0,0,0,25.60059,138.50659l25.0664,18.80005L387.2002,425.6001A88.42114,88.42114,0,0,0,352,496h16a71.71582,71.71582,0,0,1,4.16064-24h87.67872A71.71582,71.71582,0,0,1,464,496h16A88.42114,88.42114,0,0,0,444.7998,425.6001ZM352.37354,320H479.62646a88.33989,88.33989,0,0,1-9.30664,32H361.68018A88.33989,88.33989,0,0,1,352.37354,320Zm0-16a88.33989,88.33989,0,0,1,9.30664-32H470.31982a88.33989,88.33989,0,0,1,9.30664,32ZM396.7998,185.6001A71.70543,71.70543,0,0,1,380.18311,168h71.63378a71.70543,71.70543,0,0,1-16.61669,17.6001L416,200.00043Zm-9.5996,56L416,220l28.7998,21.6001A87.29183,87.29183,0,0,1,459.84033,256H372.15967A87.29183,87.29183,0,0,1,387.2002,241.6001Zm0,140.7998A87.29183,87.29183,0,0,1,372.15967,368h87.68066a87.29183,87.29183,0,0,1-15.04053,14.3999L416,404ZM380.18311,456a71.70649,71.70649,0,0,1,16.61669-17.6001L416,423.99951l19.2002,14.40039A71.70649,71.70649,0,0,1,451.81689,456Z" style="fill: rgb(51, 51, 51);" fill="#f4c44d"></path><path d="M288,377.37622V294.62378a23.99423,23.99423,0,1,0-20.9834-42.79254l-83.24536-48.55976a24,24,0,1,0-47.54248,0L52.9834,251.83124A23.9922,23.9922,0,1,0,32,294.62378v82.75244A23.99421,23.99421,0,1,0,52.9834,420.1687l83.24536,48.55982a24,24,0,1,0,47.54248,0L267.0166,420.1687A23.99218,23.99218,0,1,0,288,377.37622ZM56.51221,289.39209l79.69922,43.47217a23.359,23.359,0,0,0,0,6.27148L56.51221,382.60791A24.0299,24.0299,0,0,0,48,377.37622V294.62378A24.0299,24.0299,0,0,0,56.51221,289.39209Zm199.69922-14.25635-79.69922,43.47217A24.0299,24.0299,0,0,0,168,313.37622V222.62384a24.0305,24.0305,0,0,0,8.40259-5.12726L257.169,264.61035a23.76758,23.76758,0,0,0-.95752,10.52539ZM160,344a8,8,0,1,1,8-8A8.00917,8.00917,0,0,1,160,344Zm-8-30.62378a24.0299,24.0299,0,0,0-8.51221,5.23169L63.78857,275.13574a23.76433,23.76433,0,0,0-.95776-10.52539l80.7666-47.11377A24.0305,24.0305,0,0,0,152,222.62384Zm-88.21143,83.488,79.69922-43.47217A24.0299,24.0299,0,0,0,152,358.62378v90.75244a24.02858,24.02858,0,0,0-8.40259,5.1272l-80.7666-47.11377a23.76433,23.76433,0,0,0,.95776-10.52539ZM168,358.62378a24.0299,24.0299,0,0,0,8.51221-5.23169l79.69922,43.47217a23.76758,23.76758,0,0,0,.95752,10.52539l-80.76636,47.11377A24.02858,24.02858,0,0,0,168,449.37622Zm95.48779,23.98413-79.69922-43.47217a23.359,23.359,0,0,0,0-6.27148l79.69922-43.47217A24.0321,24.0321,0,0,0,272,294.62378v82.75244A24.0321,24.0321,0,0,0,263.48779,382.60791ZM288,272a8,8,0,1,1-8-8A8.00917,8.00917,0,0,1,288,272ZM160,192a8,8,0,1,1-8,8A8.00917,8.00917,0,0,1,160,192ZM40,264a8,8,0,1,1-8,8A8.00917,8.00917,0,0,1,40,264ZM32,400a8,8,0,1,1,8,8A8.00917,8.00917,0,0,1,32,400Zm128,80a8,8,0,1,1,8-8A8.00917,8.00917,0,0,1,160,480Zm120-72a8,8,0,1,1,8-8A8.00917,8.00917,0,0,1,280,408Z" style="fill: rgb(51, 51, 51);" fill="#008afe"></path><path d="M248,59.314V80h16V52.686L239.572,28.258a71.70958,71.70958,0,0,0-15.07324,7.55468Z" style="fill: rgb(255, 255, 255);" fill="#66aef7"></path><path d="M196.25781,71.57184,236.68652,112H264V96H243.31348l-39.501-39.50128A71.73656,71.73656,0,0,0,196.25781,71.57184Z" style="fill: rgb(255, 255, 255);" fill="#66aef7"></path><path d="M329.40723,65.90662a71.975,71.975,0,0,0-8.561-14.06678L292.68652,80H280V96h19.31348Z" style="fill: rgb(255, 255, 255);" fill="#66aef7"></path><path d="M333.68652,120h-57l-18.34375,18.34326,11.31446,11.31348L283.31348,136H327.4126A71.98373,71.98373,0,0,0,333.68652,120Z" style="fill: rgb(255, 255, 255);" fill="#66aef7"></path></g></svg>