<!-- icon666.com - MILLIONS vector ICONS FREE --><svg id="Capa_1" enable-background="new 0 0 512.001 512.001" viewBox="0 0 512.001 512.001" xmlns="http://www.w3.org/2000/svg"><g><path d="m263.975 490.491c-4.142 0-7.5-3.358-7.5-7.5v-59.216c-16.878-.609-33.644-2.703-50.017-6.219l-16.103 60.074c-1.072 4-5.186 6.375-9.186 5.302-4.001-1.072-6.375-5.185-5.302-9.186l16.009-59.726c-14.912-4.035-29.418-9.271-43.306-15.659l-31.008 50.758c-2.159 3.535-6.774 4.65-10.31 2.491-3.535-2.16-4.65-6.775-2.491-10.31l30.312-49.618c-15.19-8.071-29.003-17.38-41.229-27.739l-41.133 36.782c-3.088 2.76-7.83 2.497-10.59-.591-2.761-3.088-2.496-7.829.591-10.59l39.992-35.761c-11.54-11.341-21.329-23.738-29.137-36.984l-42.877 20.138c-3.75 1.76-8.216.148-9.977-3.6-1.761-3.75-.149-8.216 3.6-9.977l73.202-34.381c3.46-1.627 7.588-.388 9.584 2.872 16.795 27.427 43.836 50.113 78.201 65.606 3.776 1.703 5.457 6.144 3.755 9.92s-6.144 5.459-9.92 3.755c-34.757-15.671-62.688-38.331-81.187-65.784l-10.737 5.043c35.576 59.052 115.413 98.571 199.61 98.571 46.084 0 76.691-9.712 95.285-18.852l-7.128-11.623c-24.63 10.539-52.865 15.475-88.157 15.475-26.185 0-53.317-4.09-78.464-11.828-3.959-1.218-6.181-5.415-4.963-9.374 1.218-3.958 5.413-6.181 9.374-4.963 23.737 7.304 49.344 11.165 74.053 11.165 35.956 0 63.873-5.339 87.858-16.801 3.464-1.655 7.62-.428 9.627 2.846l47.087 76.783c2.166 3.531 1.058 8.149-2.473 10.314-3.534 2.165-8.149 1.058-10.314-2.473l-28.629-46.685c-9.936 4.997-23.116 10.205-39.96 14.186l14.206 56.837c1.004 4.019-1.439 8.091-5.458 9.095-4.021 1.003-8.091-1.439-9.095-5.458l-14.372-57.501c-12.824 2.172-27.386 3.597-43.823 3.824v59.062c0 4.143-3.358 7.5-7.5 7.5zm15.232-152.817c-28.961.001-57.678-5.141-84.042-15.281-40.922-15.739-71.651-41.778-87.209-73.723l-37.039 6.473c-4.08.712-7.966-2.017-8.679-6.097s2.017-7.966 6.097-8.679l42.749-7.471c3.433-.601 6.833 1.247 8.195 4.458 27.159 64.005 121.447 99.775 210.18 79.742 28.285-6.386 53.742-18.053 73.617-33.738 2.357-1.86 5.595-2.135 8.231-.7l34.653 18.858c3.638 1.98 4.983 6.535 3.003 10.173s-6.535 4.983-10.173 3.003l-30.38-16.533c-20.98 15.537-47.021 27.105-75.647 33.569-17.605 3.975-35.63 5.946-53.556 5.946zm163.172-84.745c-2.071 0-4.133-.853-5.615-2.524l-15.558-17.548c-5.498-6.2-13.403-9.756-21.689-9.756h-59.015c-4.142 0-7.5-3.358-7.5-7.5s3.358-7.5 7.5-7.5h59.015c12.574 0 24.57 5.396 32.913 14.805l15.558 17.548c2.748 3.099 2.463 7.839-.636 10.587-1.428 1.266-3.205 1.888-4.973 1.888zm69.606-145.142c-.139-2.153-1.199-4.142-2.908-5.458-38.88-29.943-84.708-52.068-136.211-65.76-4-1.063-8.11 1.318-9.175 5.321-1.064 4.003 1.318 8.111 5.321 9.175 46.572 12.381 88.267 31.883 124.07 58.018l-20.567 20.568-236.182-81.57c-10.893-3.762-22.083-6.571-33.42-8.434 45.627-5.424 92.495-3.817 137.417 4.852 4.064.782 8-1.875 8.785-5.943.785-4.067-1.876-8-5.943-8.785-58.845-11.355-120.923-10.999-179.526 1.032-60.52 12.424-116.096 37.157-160.721 71.526-3.282 2.527-3.893 7.236-1.366 10.518 1.477 1.918 3.7 2.924 5.947 2.924 1.598 0 3.208-.508 4.571-1.559 28.9-22.257 62.641-40.307 99.439-53.376 38.84-12.38 81.381-11.887 119.92 1.423l240.616 83.1c.801.277 1.627.411 2.447.411 1.957 0 3.874-.767 5.304-2.197l30-30c1.527-1.524 2.321-3.633 2.182-5.786z" fill="#000000" style="fill: rgb(255, 255, 255);"></path></g></svg>