<!-- icon666.com - MILLIONS vector ICONS FREE --><svg viewBox="0 0 60 60" xmlns="http://www.w3.org/2000/svg"><g id="014---Haircut"><path id="Shape" d="m.48 53.579c1.4 1.3 2.556 4.666 13.057 6.013 2.28552.285309 4.5879398.4132769 6.891.383 10.98 0 11.3.1 15.055-.383 8.954-1.149 11.174-3.8 12.5-5.392.1760318-.2216346.3653814-.432357.567-.631.3578002-.2350217.5263195-.6717229.4191455-1.0861743s-.4662671-.7147159-.8931455-.7468257c-8.745-1.955 4.525-24.9-6.519-34.046-.2747531-.2311419-.6523352-.2972444-.9892719-.1731897-.3369366.1240547-.5815046.4192229-.6407724.773346-.0592679.3541232.0758626.7128397.3540443.9398437 9.759 8.085-2.835 29.806 5.924 33.976-1.182 1.376-3.353 3.424-10.977 4.4-1.041.134-2.113.232-3.229.3v-7.106c2.0916724-2.2345569 3.6052852-4.9466324 4.409-7.9 1.6-.423 4.591-1.89 4.591-6.946 0-2.339-.54-3.749-1.652-4.311-.5537514-.2660699-1.1879943-.3114751-1.774-.127 0-.638-.022-1.269-.067-1.867-.0178386-.237121-.1195909-.4601251-.287-.629-3.857-3.884-5.519-4.02-12.719-4.02-4.788 0-6.585-2.736-7.23-4.368-.1156044-.2919097-.3615931-.5125786-.6642972-.5959205s-.6269762-.0196799-.8757028.1719205c-2.857 2.2-4.261 5.905-4.3 11.314-.5857243-.1840079-1.2194819-.1386119-1.773.127-1.117.562-1.657 1.972-1.657 4.311 0 5.04 2.971 6.513 4.574 6.94.7977808 2.9703593 2.3183211 5.6970941 4.426 7.937v7.063c-1.109-.065-2.174-.163-3.208-.3-7.625-.978-9.8-3.026-10.979-4.4 6.621-3.147 1.178-15.876 2.143-25.939.671-6.968 5.044-10.711 12.273-10.571.1738728-.0013389.3450506-.0431063.5-.122 4.1928132-2.0923788 8.8982579-2.936839 13.557-2.433.3553006.0376915.7037201-.1170307.9140123-.4058843.2102921-.2888536.2505085-.6679549.1055-.9945-.1450085-.3265452-.4532117-.5509242-.8085123-.5886157-4.9721988-.5259367-9.9922014.3540969-14.489 2.54-8.124-.064-13.276 4.43-14.043 12.389-1.007 10.5 4.443 23.172-1.991 24.654-.43373635.0261513-.80201629.3270468-.91411813.7468614s.05715536.8642471.42011813 1.1031386zm37.965-20.145c.023.011.555.3.555 2.526 0 2.675-1 3.966-2.048 4.587.391494-2.2660516.5961823-4.5604332.612-6.86.46-.264.77-.309.881-.253zm-28.445 2.526c0-2.221.532-2.515.555-2.526.109-.055.421-.01.88.253.0148016 2.2971104.2154564 4.5892568.6 6.854-1.045-.623-2.035-1.914-2.035-4.581zm5.569 9.261c-1.792-3.826-2.152-7.982-2.152-13.446 0-4.214.858-7.222 2.618-9.143 1.118 1.873 3.534 4.368 8.465 4.368 6.92 0 7.952.105 11.037 3.171.031.518.046 1.056.046 1.6 0 5.452-.364 9.6-2.177 13.445-2.1 4.471-5.094 6.738-8.906 6.738-3.842.004-6.846-2.262-8.931-6.733zm3.431 7.202c3.3791533 2.0600111 7.6276066 2.0530591 11-.018v5.576c-.463.01-10.531.01-11 0z" fill="#000000" style="fill: rgb(255, 255, 255);"></path><path id="Shape" d="m46.34 7.932c.871 2.436.946 2.855 1.393 3.425l-1.93.714c-.5695378-.6821336-1.4137868-1.0744995-2.3024148-1.0700506-.888628.004449-1.728906.4052485-2.2915852 1.0930506l-10.763-3.982c-.5180431-.19329966-1.0947003.0699569-1.288.588s.0699569 1.09470034.588 1.288c11.209 4.145 10.781 3.912 10.773 4.012.008.1.423-.128-10.768 4.012-.456069.1670267-.7261776.637606-.6403793 1.1156599.0857982.4780538.5026913.8253343.9883793.8233401.258 0-.626.3 11.112-4.046.5613095.6882819 1.4009413 1.0895678 2.2890744 1.0940191.8881332.0044513 1.7317452-.3883982 2.2999256-1.0710191l1.933.715c-.392.5-.355.522-1.393 3.425-.8769051 2.4384035.3609604 5.1298603 2.783 6.051 4.416 1.636 4.806 1.881 5.903 1.881 1.9720783-.0087461 3.7256127-1.256638 4.38-3.117l.314-.876c.876258-2.4381097-.361489-5.128864-2.783-6.05l-2.477-.917c-.0542355-.0422522-.1129155-.0784661-.175-.108-8.408-3.108-7.766-2.832-7.766-2.932s-.643.176 7.766-2.932c.0618897-.0298905.1205331-.0660818.175-.108l2.477-.918c2.421511-.92113597 3.659258-3.61189028 2.783-6.05l-.314-.875c-.4095121-1.17479675-1.2735605-2.13598319-2.3982564-2.66787296-1.1246959-.53188978-2.415854-.58994094-3.5837436-.16112704l-4.3 1.593c-2.422435.92074101-3.6607999 3.61231653-2.784 6.051zm-2.821 7.068c-.5522847 0-1-.4477153-1-1s.4477153-1 1-1 1 .4477153 1 1c-.003815.5506968-.4493032.996185-1 1zm14.318 8.334-.314.876c-.230069.670331-.719713 1.2201793-1.3590011 1.5260975-.6392882.3059182-1.374654.342273-2.0409989.1009025l-4.3-1.593c-1.3956071-.5381477-2.1044833-2.0936754-1.595-3.5l.939-2.626c.1147989-.3332837.4265269-.5585763.779-.563.2 0-.263-.151 6.3 2.281 1.3937601.5388838 2.1007712 2.0933305 1.591 3.498zm-3.718-21.17c.6530698-.24415931 1.3770128-.21459591 2.008.082.905824.50746565 1.5341739 1.39670934 1.71 2.42.5101036 1.40776758-.2016272 2.96467877-1.6 3.5l-6.017 2.234c-.2082455.0743615-.4376401.0619042-.6366083-.0345709-.1989683-.0964752-.350812-.2688716-.4213917-.4784291l-.939-2.627c-.5101663-1.40606856.1983925-2.96187527 1.594-3.5z" fill="#000000" style="fill: rgb(255, 255, 255);"></path></g></svg>