<!-- icon666.com - MILLIONS vector ICONS FREE --><svg version="1.1" id="Capa_1" xmlns="http://www.w3.org/2000/svg" xmlns:xlink="http://www.w3.org/1999/xlink" x="0px" y="0px" viewBox="0 0 512 512" style="enable-background:new 0 0 512 512;" xml:space="preserve"><g><g><path d="M332.418,342.861c-0.553-15.547-13.902-28.195-29.757-28.195H283.64c-3.266,0-6.362-1.577-8.282-4.219l-75.376-103.745 V7.5c0-4.143-3.358-7.5-7.5-7.5c-4.142,0-7.5,3.357-7.5,7.5v201.638c0,1.584,0.501,3.127,1.432,4.408l76.809,105.718 c4.733,6.513,12.366,10.401,20.417,10.401h19.021c7.873,0,14.498,6.158,14.767,13.729c0.139,3.914-1.277,7.616-3.987,10.425 c-2.711,2.81-6.355,4.357-10.258,4.357h-41.186l-58.06-6.56c-16.667-1.874-31.063-12.641-37.569-28.099l-9.059-21.52 c-7.663-18.201-22.778-32.294-41.471-38.664l-12.896-4.396c-16.233-5.531-26.763-20.792-26.2-37.974 c0.326-9.951,4.637-19.483,12.138-26.838l4.598-4.509c7.006-6.869,11.025-16.437,11.025-26.248V7.5c0-4.143-3.358-7.5-7.5-7.5 c-4.142,0-7.5,3.357-7.5,7.5v155.87c0,5.808-2.378,11.471-6.526,15.537l-4.598,4.509c-10.27,10.069-16.175,23.23-16.628,37.059 c-0.78,23.823,13.829,44.987,36.354,52.662l12.894,4.394c14.642,4.99,26.482,16.03,32.484,30.287l9.059,21.52 c8.611,20.456,27.663,34.704,49.715,37.184l58.476,6.606c0.279,0.032,0.561,0.048,0.842,0.048h41.607 c8.011,0,15.487-3.176,21.052-8.941C329.797,358.471,332.703,350.881,332.418,342.861z" fill="#000000" style="fill: rgb(255, 255, 255);"></path></g></g><g><g><path d="M437.434,384.774H235.992c-4.142,0-7.5,3.357-7.5,7.5s3.358,7.5,7.5,7.5h199.286v13.057H126.961v-13.057h80.678 c4.142,0,7.5-3.357,7.5-7.5s-3.358-7.5-7.5-7.5h-82.834c-7.082,0-12.844,5.762-12.844,12.844v22.446 c0,50.693,41.242,91.936,91.936,91.936h154.446c29.019,0,55.732-13.275,73.29-36.423c2.503-3.3,1.857-8.005-1.443-10.508 c-3.301-2.505-8.006-1.857-10.508,1.443C404.984,485.888,382.627,497,358.342,497H203.896c-39.801,0-72.638-30.38-76.544-69.169 H434.88c-0.497,4.963-1.462,9.854-2.905,14.611c-1.469,4.84,2.174,9.68,7.18,9.68c3.217,0,6.191-2.087,7.174-5.324 c2.621-8.636,3.949-17.63,3.949-26.733v-22.446C450.278,390.536,444.516,384.774,437.434,384.774z" fill="#000000" style="fill: rgb(255, 255, 255);"></path></g></g><g><g><path d="M399.389,199.482c8.69-7.873,15.8-17.447,20.802-28.12c2.059-4.392,1.835-9.532-0.598-13.75 c-2.434-4.22-6.773-6.987-11.608-7.405c-4.132-0.345-7.759,2.701-8.116,6.827c-0.352,4.075,2.625,7.67,6.673,8.104 c-4.556,9.666-11.185,18.25-19.333,25.08c-0.118-0.075-0.238-0.141-0.356-0.215c-4.788-2.994-9.677-5.431-14.495-7.345 c-1.004-0.394-2.047-0.778-3.151-1.168c-1.921-2.36-4.212-4.404-6.782-6.052c0.347-0.208,0.688-0.423,1.039-0.626 c2.242-1.296,4.556-2.483,6.879-3.527c3.497-1.561,7.144-2.858,10.839-3.854c3.999-1.079,6.366-5.195,5.288-9.194 c-1.079-4-5.193-6.37-9.195-5.288c-1.36,0.367-2.712,0.779-4.059,1.212c-2.47-11.462-7.202-22.405-13.936-32.073 c-2.777-3.981-7.344-6.359-12.215-6.359c-4.872,0-9.439,2.378-12.217,6.359c-6.732,9.651-11.466,20.595-13.943,32.075 c-11.167-3.586-23.014-4.957-34.761-3.956c-4.838,0.418-9.181,3.188-11.617,7.411c-2.432,4.218-2.656,9.355-0.599,13.744 c5.002,10.672,12.116,20.247,20.81,28.121c-8.694,7.877-15.806,17.447-20.815,28.115c-2.056,4.406-1.825,9.556,0.619,13.775 c2.44,4.213,6.783,6.973,11.611,7.38c2.506,0.214,5.016,0.319,7.523,0.319c9.25,0,18.455-1.448,27.232-4.272 c2.477,11.47,7.209,22.412,13.941,32.071c2.778,3.982,7.345,6.359,12.217,6.359s9.438-2.378,12.22-6.366 c6.734-9.675,11.464-20.62,13.931-32.063c10.952,3.523,22.777,4.972,34.754,3.953c4.83-0.408,9.169-3.165,11.608-7.374 c2.444-4.221,2.675-9.372,0.61-13.798C415.184,216.923,408.076,207.356,399.389,199.482z M347.064,130.795 c6.088,8.779,10.203,18.813,12.042,29.292c-6.17,3.251-12.029,7.333-16.548,11.204c-3.069,0.489-5.974,1.471-8.636,2.858 C333.667,158.146,338.505,143.12,347.064,130.795z M287.579,165.139c10.647-0.88,21.396,0.566,31.393,4.204 c-0.005,0.134-0.003,0.267-0.008,0.401c-0.237,6.617,0.209,12.841,1.437,19.547c-1.069,2.787-1.715,5.78-1.854,8.904 c-0.347-0.193-0.698-0.378-1.041-0.577c-2.276-1.316-4.458-2.731-6.498-4.213C300.972,186.14,292.873,176.37,287.579,165.139z M330.663,224.148c-13.035,7.544-28.054,10.921-43.09,9.671c4.557-9.653,11.191-18.235,19.347-25.075 c5.679,3.589,11.767,6.546,18.01,8.746c1.918,2.352,4.204,4.39,6.767,6.034C331.352,223.731,331.012,223.946,330.663,224.148z M359.819,233.739c-1.27,12.314-5.679,24.214-12.755,34.426c-6.084-8.771-10.201-18.806-12.047-29.294 c0.116-0.061,0.225-0.126,0.341-0.188c5.96-3.161,11.547-7.004,16.197-11.011c3.075-0.488,5.986-1.473,8.653-2.863 c0.007,0.4,0.022,0.801,0.022,1.2C360.23,228.607,360.093,231.197,359.819,233.739z M347.062,213.03 c-7.47,0-13.548-6.077-13.548-13.548s6.077-13.549,13.548-13.549c7.471,0,13.548,6.078,13.548,13.549 S354.532,213.03,347.062,213.03z M375.157,229.616c0.005-0.133,0.003-0.268,0.008-0.401c0.249-6.875-0.292-13.417-1.449-19.523 c1.073-2.792,1.722-5.791,1.862-8.921c0.352,0.195,0.706,0.382,1.055,0.583c2.196,1.26,4.379,2.674,6.489,4.202 c10.055,7.287,18.168,17.089,23.452,28.263C395.907,234.708,385.15,233.259,375.157,229.616z" fill="#000000" style="fill: rgb(255, 255, 255);"></path></g></g><g><g><path d="M390.925,321.188c3.983-11.096-0.383-23.762-10.616-30.804c-3.412-2.349-8.083-1.485-10.43,1.927 c-2.348,3.413-1.485,8.082,1.927,10.431c4.555,3.135,6.658,8.761,5,13.378c-1.462,4.074-5.817,8.647-8.617,14.298 c-5.681,11.465-3.865,25.298,4.626,35.241c1.483,1.736,3.588,2.629,5.707,2.629c6.317,0,9.884-7.47,5.7-12.371 c-4.585-5.368-5.603-12.764-2.592-18.839C383.892,332.513,388.557,327.784,390.925,321.188z" fill="#000000" style="fill: rgb(255, 255, 255);"></path></g></g><g><g><path d="M434.294,321.189c3.983-11.096-0.383-23.762-10.616-30.804c-3.414-2.349-8.083-1.486-10.43,1.927 c-2.348,3.413-1.485,8.082,1.927,10.431c4.555,3.135,6.658,8.761,5.001,13.378c-1.485,4.135-5.771,8.554-8.618,14.298 c-5.681,11.465-3.865,25.298,4.626,35.241c1.483,1.736,3.588,2.629,5.707,2.629c1.723,0,3.455-0.591,4.867-1.797 c3.15-2.689,3.522-7.424,0.833-10.574c-4.585-5.368-5.603-12.764-2.592-18.839C427.235,332.567,431.937,327.752,434.294,321.189z" fill="#000000" style="fill: rgb(255, 255, 255);"></path></g></g><g><g><path d="M283.808,70.296c-11.337-3.08-14.651-6.394-17.73-17.729c-1.251-4.608-5.301-7.704-10.079-7.704 s-8.828,3.096-10.079,7.704v-0.001c-3.079,11.337-6.393,14.65-17.73,17.73c-4.607,1.251-7.702,5.301-7.702,10.078 c0,4.777,3.096,8.826,7.703,10.078c11.337,3.078,14.65,6.392,17.729,17.728c1.251,4.608,5.301,7.704,10.079,7.704 s8.828-3.096,10.079-7.703c3.079-11.337,6.393-14.65,17.73-17.729c4.607-1.251,7.702-5.301,7.702-10.078 C291.51,75.597,288.415,71.547,283.808,70.296z M255.999,92.762c-2.975-5.479-6.91-9.415-12.39-12.389 c5.48-2.976,9.416-6.911,12.39-12.39c2.975,5.479,6.91,9.414,12.39,12.39C262.91,83.348,258.974,87.282,255.999,92.762z" fill="#000000" style="fill: rgb(255, 255, 255);"></path></g></g></svg>