<!-- icon666.com - MILLIONS vector ICONS FREE --><svg id="Layer_1" enable-background="new 0 0 480 480" viewBox="0 0 480 480" xmlns="http://www.w3.org/2000/svg"><path d="m393.5 424.743v47.257c0 4.418-3.582 8-8 8s-8-3.582-8-8v-47.257c0-22.15-10.975-42.789-29.357-55.207-3.661-2.473-4.624-7.446-2.15-11.107 2.474-3.662 7.446-4.625 11.107-2.15 22.793 15.397 36.4 40.991 36.4 68.464zm17-228.743v101c0 4.418-3.582 8-8 8h-17c-20.875 0-40.507-9.218-53.862-25.288-2.823-3.398-2.357-8.442 1.04-11.267 3.397-2.822 8.441-2.358 11.267 1.04 10.304 12.403 25.451 19.515 41.555 19.515h9v-93c0-18.763-13.32-34.471-31-38.171v28.504c0 4.418-3.582 8-8 8s-8-3.582-8-8v-78.333c0-50.729-41.271-92-92-92h-47.996c-50.731 0-92.004 41.272-92.004 92.004v78.329c0 6.483 3.65 12.125 9 14.992v-47.325c0-4.418 3.582-8 8-8s8 3.582 8 8v56.125c0 50.178 40.822 91 91 91s91-40.822 91-91v-47.894c-19.296-1.096-36.04-13.155-42.004-35.543-17.063 10.928-35.266 19.932-54.265 26.832-26.992 9.803-53.717 13.885-56.687 13.885-3.926 0-7.353-2.893-7.913-6.892-.612-4.376 2.438-8.42 6.813-9.032 40.839-5.718 79.597-21.058 113.433-45.01 5.307-3.757 12.664.074 12.622 6.581-.001.198.074 20.039 15.124 29.093 9.948 5.985 19.423 3.632 21.832 3.918 3.224.38 5.927 2.7 6.77 5.891.396 1.502.274-2.024.274 58.78 0 69.573-67.988 122.421-137.17 102.053-.762 9.662-4.308 18.751-10.251 26.346l40.421 30.809 21.321-16.252c3.515-2.679 8.534-2 11.212 1.513 2.679 3.514 2.001 8.533-1.513 11.212-27.521 20.978-26.216 20.061-27.16 20.58-1.922 1.065-4.265 1.324-6.442.575-1.767-.599 1.838 1.924-49.792-37.429-5.073 3.324-10.694 5.663-16.627 6.928v36.025c12.669 3.511 22 15.137 22 28.908 0 16.542-13.458 30-30 30s-30-13.458-30-30c0-13.771 9.331-25.397 22-28.908v-34.674c-33.763 2.781-61 31.005-61 66.325v47.255c0 4.418-3.582 8-8 8s-8-3.582-8-8v-47.257c0-45.638 36.93-82.571 82.571-82.571 18.515 0 33.429-14.986 33.429-33.342v-2.107c-33.676-16.102-57.667-49.309-60.673-88.3-14.507-3.469-25.327-16.536-25.327-32.09v-78.329c.002-59.554 48.453-108.004 108.006-108.004h47.996c59.552 0 108 48.448 108 108v33.588c26.548 3.887 47 26.802 47 54.412zm-256 212c-7.72 0-14 6.28-14 14s6.28 14 14 14 14-6.28 14-14-6.28-14-14-14zm162-15.242c0-45.698.179-43.425-.423-45.213-1.003-2.974-3.716-5.195-7.036-5.42-11.839-.849-21.25-7.043-26.707-16.004-2.299-3.774-7.221-4.97-10.994-2.672-3.773 2.299-4.97 7.221-2.672 10.994 7.115 11.682 18.682 19.774 31.832 22.602v35.713c-19.899 3.761-35 21.267-35 42.242v37c0 4.418 3.582 8 8 8s8-3.582 8-8v-37c0-14.888 12.112-27 27-27s27 12.112 27 27v37c0 4.418 3.582 8 8 8s8-3.582 8-8v-37c0-20.976-15.101-38.481-35-42.242z" fill="#000000" style="fill: rgb(51, 51, 51);"></path></svg>