<!-- icon666.com - MILLIONS vector ICONS FREE --><svg id="Layer_1" viewBox="0 0 68 68" xmlns="http://www.w3.org/2000/svg" data-name="Layer 1"><path d="m47.53 17.34a1 1 0 0 1 -1-.85 20.13 20.13 0 0 1 2.12-12.49h-29.33a20.37 20.37 0 0 1 2.34 10 1 1 0 0 1 -1 1 1 1 0 0 1 -1-1 19 19 0 0 0 -2.89-10.5 1 1 0 0 1 .86-1.5h32.69a1 1 0 0 1 .87.5 1 1 0 0 1 0 1 18.73 18.73 0 0 0 -2.67 12.69 1 1 0 0 1 -.84 1.14z" fill="#000000" style="fill: rgb(255, 255, 255);"></path><path d="m50.32 66h-14.22a1 1 0 0 1 -1-.85 34.79 34.79 0 0 1 .59-12.15 8.5 8.5 0 0 1 -3.37 0 35.38 35.38 0 0 1 .59 12.15 1 1 0 0 1 -1 .85h-14.28a1 1 0 0 1 -.86-.5c-10.22-17.76-5.37-28.67-1.1-38.29.4-.91.8-1.81 1.18-2.7a1 1 0 1 1 1.84.78c-.38.9-.78 1.81-1.19 2.73-4.24 9.54-8.62 19.4.72 36h12.83a37.14 37.14 0 0 0 -1.05-12.28 1 1 0 0 1 1.39-1.14 6.31 6.31 0 0 0 5.24 0 1 1 0 0 1 1.06.14 1 1 0 0 1 .33 1 35.13 35.13 0 0 0 -1.02 12.26h12.74c9.38-16.59 4.83-26.84 1.17-35.09a1 1 0 0 1 1.83-.82c3.67 8.29 8.71 19.65-1.55 37.41a1 1 0 0 1 -.87.5z" fill="#000000" style="fill: rgb(255, 255, 255);"></path><path d="m34 53.17a8.26 8.26 0 0 1 -3.46-.75 1 1 0 0 1 -.42-.36c-3.95-6-10-10.14-17.9-12.34a1 1 0 0 1 -.71-1.16 32.65 32.65 0 0 1 1.49-5.07 1 1 0 0 1 1.25-.59 61.8 61.8 0 0 0 39.45 0 1 1 0 0 1 1.26.59 34.13 34.13 0 0 1 1.51 5.07 1 1 0 0 1 -.72 1.17c-8 2.19-14 6.34-17.89 12.33a1.12 1.12 0 0 1 -.42.36 8.29 8.29 0 0 1 -3.44.75zm-2.38-2.46a6.3 6.3 0 0 0 4.75 0c4-6 10-10.29 18-12.65-.23-1-.53-1.94-.88-3a63.8 63.8 0 0 1 -38.88 0c-.36 1-.65 2-.89 3 7.82 2.36 13.86 6.61 17.92 12.65z" fill="#000000" style="fill: rgb(255, 255, 255);"></path><path d="m54.28 29.5h-17.88c-13.48 0-23.65-4-23.65-9.35v-12.15a1 1 0 0 1 2 0c0 3.48 8.89 7.35 21.65 7.35h17.88a1 1 0 0 1 1 1v12.15a1 1 0 0 1 -1 1zm-39.53-17.62v8.27c0 3.47 8.89 7.35 21.65 7.35h16.88v-10.17h-16.88c-9.92 0-18.05-2.17-21.65-5.45z" fill="#000000" style="fill: rgb(255, 255, 255);"></path><path d="m46.52 29.5a1 1 0 0 1 -1-1v-5.1a1 1 0 0 1 2 0v5.1a1 1 0 0 1 -1 1z" fill="#000000" style="fill: rgb(255, 255, 255);"></path><path d="m40.27 29.5a1 1 0 0 1 -1-1v-5.66a1 1 0 1 1 2 0v5.66a1 1 0 0 1 -1 1z" fill="#000000" style="fill: rgb(255, 255, 255);"></path><path d="m34 29.46a1 1 0 0 1 -1-1v-6.18a1 1 0 0 1 2 0v6.18a1 1 0 0 1 -1 1z" fill="#000000" style="fill: rgb(255, 255, 255);"></path><path d="m27.76 28.87a1 1 0 0 1 -1-1v-6.15a1 1 0 0 1 2 0v6.15a1 1 0 0 1 -1 1z" fill="#000000" style="fill: rgb(255, 255, 255);"></path><path d="m21.51 27.44a1 1 0 0 1 -1-1v-5.27a1 1 0 0 1 2 0v5.27a1 1 0 0 1 -1 1z" fill="#000000" style="fill: rgb(255, 255, 255);"></path></svg>