<!-- icon666.com - MILLIONS vector ICONS FREE --><svg viewBox="-3 0 511 511.99987" xmlns="http://www.w3.org/2000/svg"><path d="m504.339844 393.148438c-.332032-3.648438-3.226563-6.542969-6.875-6.875-24.671875-2.246094-48.765625 3.75-69.113282 16.988281-5.046874-23.625-17.863281-45.066407-36.839843-60.871094-2.816407-2.34375-6.90625-2.347656-9.726563 0-18.980468 15.804687-31.792968 37.25-36.839844 60.878906-20.351562-13.246093-44.449218-19.242187-69.117187-16.996093-3.652344.332031-6.542969 3.226562-6.875 6.878906-2.949219 32.339844 8.507813 64.035156 31.429687 86.957031 6.3125 6.316406 13.296876 11.753906 20.769532 16.269531h-154.191406v-194.242187h144.25c4.199218 0 7.597656-3.402344 7.597656-7.597657 0-4.195312-3.398438-7.597656-7.597656-7.597656h-99.589844l63.648437-18.90625 103.785157 32.105469v24.117187c0 4.195313 3.398437 7.597657 7.597656 7.597657 4.195312 0 7.597656-3.402344 7.597656-7.597657v-29.71875c0-3.332031-2.171875-6.273437-5.351562-7.257812l-105.984376-32.792969v-19.738281c16.492188-11.667969 25.207032-25.71875 25.90625-41.816406 1.566407-35.957032-38.65625-67.652344-40.367187-68.984375-2.921875-2.269531-7.050781-2.109375-9.78125.382812-2.734375 2.488281-3.277344 6.585938-1.289063 9.703125 5.585938 8.753906 2.683594 14.671875-6.394531 28.144532-7.628906 11.324218-17.121093 25.414062-12.734375 44.292968 4.546875 19.570313 20.351563 27.304688 29.460938 30.191406v17.757813l-51.769532 15.378906v-102.914062c0-3.304688-2.140624-6.234375-5.292968-7.238281l-94.832032-30.195313v-17.050781c16.496094-11.667969 25.207032-25.71875 25.90625-41.816406 1.570313-35.957032-38.65625-67.65625-40.367187-68.988282-2.917969-2.265625-7.050781-2.105468-9.78125.386719-2.734375 2.488281-3.277344 6.585937-1.289063 9.703125 5.589844 8.753906 2.683594 14.671875-6.390624 28.144531-7.628907 11.324219-17.125 25.414063-12.738282 44.292969 4.546875 19.566406 20.355469 27.304688 29.464844 30.191406v15.136719l-94.832031 30.195313c-3.152344 1.003906-5.292969 3.929687-5.292969 7.238281v70.917969c0 4.195312 3.402344 7.597656 7.597656 7.597656 4.199219 0 7.597656-3.402344 7.597656-7.597656v-63.320313h117.726563c4.195313 0 7.597656-3.402344 7.597656-7.597656 0-4.195313-3.402343-7.597657-7.597656-7.597657h-76.417969l51.21875-16.308593 92.527344 29.460937v101.875l-43.550781 12.9375c-3.222657.957032-5.433594 3.921875-5.433594 7.28125v201.839844h-136.066406v-228.175781c0-4.195313-3.402344-7.597657-7.601563-7.597657-4.195312 0-7.597656 3.402344-7.597656 7.597657v235.777343c0 4.195313 3.402344 7.597657 7.597656 7.597657h359.664063c3.167969.277343 6.355469.425781 9.558593.425781 3.097657 0 6.210938-.136719 9.332032-.402344 3.121094.265625 6.230468.402344 9.332031.402344 28.777344 0 56.371094-11.335938 76.925781-31.890625 1.90625-1.90625 3.757813-3.898437 5.507813-5.925781 2.742187-3.175782 2.390625-7.972656-.785157-10.714844-3.179687-2.742188-7.976562-2.390625-10.71875.785156-1.507812 1.746094-3.105468 3.464844-4.75 5.109375-15.503906 15.507813-35.667968 24.914063-57.097656 26.996094 16.5-19.507813 25.703125-44.265625 25.703125-70.257813 0-1.949218-.054687-3.894531-.15625-5.828124 16.953125-13.023438 37.570313-19.734376 58.964844-19.238282.328125 14.769532-2.8125 29.414063-9.210937 42.710938-1.820313 3.78125-.226563 8.320312 3.554687 10.140625 1.0625.511719 2.183594.753906 3.289063.753906 2.828124 0 5.542968-1.585937 6.851562-4.308594 8.523438-17.722656 12.078125-37.496093 10.277344-57.183593zm-418.375-312.464844c-2.890625-12.429688 3.632812-22.113282 10.535156-32.363282 4.035156-5.988281 8.566406-12.710937 10.636719-20.1875 9.597656 10.800782 20.101562 26.289063 19.410156 41.820313-.503906 11.246094-7.191406 21.433594-19.894531 30.316406-5.394532-1.449219-17.566406-6.152343-20.6875-19.585937zm167.089844 122.347656c-2.890626-12.429688 3.632812-22.109375 10.539062-32.359375 4.03125-5.988281 8.558594-12.707031 10.632812-20.183594 1.042969 1.175781 2.09375 2.40625 3.140626 3.6875 7.773437 9.511719 16.90625 23.847657 16.269531 38.128907-.5 11.246093-7.1875 21.433593-19.890625 30.316406-5.441406-1.453125-17.566406-6.148438-20.691406-19.589844zm30.660156 198.003906c21.410156-.5 42.015625 6.21875 58.96875 19.246094-.101563 1.933594-.15625 3.875-.15625 5.820312 0 25.992188 9.203125 50.75 25.703125 70.257813-21.429688-2.085937-41.59375-11.488281-57.101563-26.996094-18.183594-18.179687-27.980468-42.785156-27.414062-68.328125zm102.933594 92.761719c-18.457032-17.652344-28.925782-41.976563-28.925782-67.695313s10.46875-50.042968 28.925782-67.695312c18.457031 17.652344 28.925781 41.976562 28.925781 67.695312s-10.46875 50.042969-28.925781 67.695313zm0 0" fill="#000000" style="fill: rgb(51, 51, 51);"></path></svg>