<!-- icon666.com - MILLIONS vector ICONS FREE --><svg id="Layer_1" viewBox="0 0 512 512" xmlns="http://www.w3.org/2000/svg"><path d="m148.835 440.229c0 21.523 17.51 39.033 39.032 39.033h160.106c21.523 0 39.033-17.51 39.033-39.033v-210.678h16.145c24.746 0 44.879-20.132 44.879-44.879v-44.559c0-24.746-20.132-44.879-44.879-44.879h-16.145v-23.463c0-21.523-17.51-39.033-39.033-39.033h-160.105c-21.522 0-39.032 17.51-39.032 39.033v122.708c-4.354.456-8.688 1.205-12.96 2.261-50.639 12.52-81.65 63.904-69.13 114.542 9.685 39.17 42.71 67.392 82.09 71.404v57.543zm284.963-300.117v44.559c0 16.898-13.748 30.645-30.645 30.645h-61.238c-1.51 0-2.979.48-4.198 1.37l-24.896 18.186-.02-12.451c-.006-3.926-3.19-7.105-7.117-7.105-16.898 0-30.645-13.747-30.645-30.645v-44.559c0-16.898 13.748-30.645 30.645-30.645h97.469c16.897 0 30.645 13.747 30.645 30.645zm-245.93-93.14h38.915c.228 3.725 3.312 6.677 7.094 6.677h68.089c3.782 0 6.866-2.952 7.094-6.677h38.914c13.675 0 24.8 11.125 24.8 24.8v23.462h-67.091c-24.746 0-44.879 20.132-44.879 44.879v44.559c0 22.328 16.392 40.9 37.772 44.317l.032 19.891c.005 2.677 1.511 5.126 3.899 6.336 1.016.515 2.118.769 3.216.769 1.483 0 2.957-.463 4.199-1.37l34.313-25.064h28.537v210.678c0 13.675-11.125 24.8-24.8 24.8h-160.104c-13.675 0-24.799-11.125-24.799-24.8v-57.153c5.992-.292 11.975-1.147 17.845-2.573 2.684.23 10.778 4.247 15.66 6.671 10.568 5.245 17.389 8.429 22.992 8.429h.003c2.063 0 3.919-.449 5.516-1.333 2.895-1.602 4.303-4.988 3.401-8.171-3.382-11.924-5.529-24.959-4.807-28.86 24.667-23.421 34.907-58.329 26.738-91.369-10.113-40.903-45.672-69.883-87.347-71.806v-122.293c-.001-13.674 11.123-24.799 24.798-24.799zm31.698 334.397c.001 0 .001 0 0 0l.002 2.928-.001-.001zm-139.004-73.504c-5.152-20.839-1.881-42.437 9.212-60.817 11.092-18.379 28.678-31.338 49.517-36.491 6.361-1.573 12.873-2.37 19.359-2.37 37.001 0 69.055 25.124 77.949 61.098 7.012 28.357-1.942 58.335-23.366 78.238-4.308 4.002-4.971 11.52-2.29 25.949.341 1.831.71 3.626 1.08 5.321-3.131-1.397-6.551-3.095-9.12-4.37-10.235-5.08-16.835-8.164-22.164-8.164-1.004 0-1.969.112-2.866.334-6.361 1.573-12.874 2.37-19.359 2.37-37.002 0-69.057-25.124-77.952-61.098zm153.315 112.102h68.089c3.931 0 7.117 3.186 7.117 7.117 0 3.93-3.186 7.117-7.117 7.117h-68.089c-3.931 0-7.117-3.186-7.117-7.117s3.186-7.117 7.117-7.117zm71.849-280.174h100.49c3.931 0 7.117 3.186 7.117 7.117 0 3.93-3.186 7.117-7.117 7.117h-100.49c-3.931 0-7.117-3.186-7.117-7.117s3.186-7.117 7.117-7.117zm107.607 40.347c0 3.93-3.186 7.117-7.117 7.117h-100.49c-3.931 0-7.117-3.186-7.117-7.117 0-3.93 3.186-7.117 7.117-7.117h100.49c3.931.001 7.117 3.187 7.117 7.117zm-246.575 162.409 41.538-41.919c6.15-6.199 9.515-14.429 9.474-23.172-.041-8.739-3.48-16.938-9.685-23.085-6.165-6.109-14.34-9.473-23.018-9.473-8.795 0-17.046 3.441-23.232 9.685l-.511.515-.512-.507c-6.164-6.108-14.34-9.472-23.022-9.472h-.153c-8.744.04-16.941 3.481-23.079 9.685-6.148 6.206-9.513 14.435-9.472 23.171s3.481 16.934 9.687 23.082l41.921 41.534c1.387 1.375 3.198 2.061 5.009 2.061 1.832.002 3.664-.701 5.055-2.105zm-41.967-51.599c-3.506-3.474-5.449-8.104-5.471-13.038-.023-4.934 1.877-9.582 5.354-13.091 3.465-3.502 8.092-5.444 13.117-5.467 4.904 0 9.522 1.9 13.004 5.35l5.565 5.512c2.791 2.764 7.294 2.746 10.061-.044l5.523-5.567c3.496-3.529 8.156-5.472 13.124-5.472 4.901 0 9.518 1.9 13.001 5.35 3.504 3.472 5.446 8.103 5.469 13.041s-1.876 9.583-5.349 13.084l-36.531 36.866z" fill="#000000" style="fill: rgb(255, 255, 255);"></path></svg>