<!-- icon666.com - MILLIONS vector ICONS FREE --><svg id="Layer_1" enable-background="new 0 0 491.5 491.5" viewBox="0 0 491.5 491.5" xmlns="http://www.w3.org/2000/svg"><g id="Layer_x0020_1"><g id="_353383040"><g clip-rule="evenodd" fill-rule="evenodd"><path id="_353384696" d="m442.4 429.8h-219.9c-2.6 0-4.7-2.1-4.7-4.7s2.1-4.7 4.7-4.7h219.9c6 0 10.9-4.9 10.9-10.9s-4.9-10.9-10.9-10.9h-172.3c-2.6 0-4.7-2.1-4.7-4.7s2.1-4.7 4.7-4.7h172.3c11.2 0 20.4 9.1 20.4 20.4-.1 11.1-9.2 20.2-20.4 20.2z" fill="#aeaeae" style="fill: rgb(255, 255, 255);"></path><path id="_353384672" d="m426.8 398.6c-2.6 0-4.7-2.1-4.7-4.7s2.1-4.7 4.7-4.7c14.6 0 26.5-11.9 26.5-26.5s-11.9-26.5-26.5-26.5h-13.5c-2.6 0-4.7-2.1-4.7-4.7s2.1-4.7 4.7-4.7h13.5c19.8 0 36 16.1 36 36s-16.2 35.8-36 35.8z" fill="#aeaeae" style="fill: rgb(255, 255, 255);"></path><path id="_353384624" d="m418.3 367.4h-138.1c-2.6 0-4.7-2.1-4.7-4.7s2.1-4.7 4.7-4.7h138.1c2.6 0 4.7 2.1 4.7 4.7s-2.1 4.7-4.7 4.7z" fill="#aeaeae" style="fill: rgb(255, 255, 255);"></path><g fill="#797979"><path id="_353384744" d="m360.7 352.9c-1.5 0-3-.7-3.9-2-1.5-2.2-.9-5.1 1.2-6.6 31.9-21.9 25.7-51.3 22.4-61.2-5.9 1.3-18 5-27.6 15.1-1.8 1.9-4.8 2-6.7.2s-2-4.8-.2-6.7c15.7-16.5 36.2-18.6 37.1-18.7 2-.2 3.9.9 4.7 2.7.2.5 5.3 11.6 4.8 26.5-.4 13.9-5.9 33.8-29.2 49.8-.7.7-1.6.9-2.6.9z" fill="#797979" style="fill: rgb(255, 255, 255);"></path><path id="_353384120" d="m357.7 366.1c-4.8 0-9.8-.3-15-1-2.6-.3-4.4-2.7-4.1-5.3s2.7-4.4 5.3-4.1c22.3 2.8 40-.9 52.5-11 12.4-10 16.7-23.8 18.1-30.1-5-1.6-15-4-26.3-1.9-2.6.5-5-1.2-5.5-3.8s1.2-5 3.8-5.5c19.1-3.4 34.6 3.6 35.2 3.9 1.8.8 2.9 2.7 2.7 4.7-.1 1-2.4 24.3-22.1 40.2-11.5 9.2-26.5 13.9-44.6 13.9z" fill="#797979" style="fill: rgb(255, 255, 255);"></path><path id="_353383952" d="m332 279.1c-11.9 14.4-32.6 44.7-26.5 62.9 2.7 8 10.7 13.2 23.8 15.7 1.9.4 3.5.4 5.4 0 13.1-2.5 21.1-7.8 23.8-15.7 6.1-18.2-14.6-48.5-26.5-62.9zm0 88.3c-1.5 0-2.9-.1-4.5-.4-16.7-3.2-27.1-10.6-31-22-9.9-29.5 30.2-74.4 31.9-76.3.9-1 2.2-1.6 3.5-1.6s2.6.6 3.5 1.6c1.7 1.9 41.9 46.9 31.9 76.3-3.9 11.4-14.3 18.8-31 22-1.4.3-2.8.4-4.3.4z" fill="#797979" style="fill: rgb(255, 255, 255);"></path><path id="_353384024" d="m96.2 429.9c-1.8 0-3.4-1-4.2-2.6-9.2-18.6-14-40.4-14-63.1 0-29.4 8.1-57.2 22.9-78.1 15.1-21.4 35.4-33.2 57.1-33.2s41.9 11.8 57.1 33.2c14.8 20.9 22.9 48.7 22.9 78.1 0 22.7-4.8 44.5-14 63.1-1.1 2.3-4 3.3-6.3 2.1-2.4-1.1-3.3-4-2.2-6.3 8.5-17.3 13-37.6 13-58.9 0-56.2-31.6-101.9-70.5-101.9s-70.6 45.7-70.6 101.8c0 21.2 4.5 41.6 13 58.9 1.2 2.4.2 5.2-2.2 6.3-.6.4-1.3.6-2 .6z" fill="#797979" style="fill: rgb(255, 255, 255);"></path><path id="_353383880" d="m86.7 202.9c-.5 0-.9.4-.9.9v14.6c0 5.3 4.3 9.7 9.7 9.7h124.7c5.3 0 9.7-4.3 9.7-9.7v-14.6c0-.5-.4-.9-.9-.9zm133.5 34.7h-124.7c-10.6 0-19.2-8.6-19.2-19.1v-14.6c0-5.7 4.7-10.4 10.4-10.4h142.3c5.7 0 10.4 4.7 10.4 10.4v14.6c0 10.5-8.6 19.1-19.2 19.1z" fill="#797979" style="fill: rgb(255, 255, 255);"></path></g><path id="_353383448" d="m190.5 169.1c-2.6 0-4.7-2.1-4.7-4.7 0-4.2-2.7-9-5.5-14-3.3-5.9-6.7-12-6.7-18.6 0-6.7 3.4-12.8 6.7-18.7 2.8-5 5.5-9.8 5.5-14s-2.7-9-5.5-14c-3.3-5.9-6.7-12-6.7-18.7 0-2.6 2.1-4.7 4.7-4.7s4.7 2.1 4.7 4.7c0 4.2 2.7 9 5.5 14 3.3 5.9 6.7 12 6.7 18.7s-3.4 12.8-6.7 18.7c-2.8 5-5.5 9.8-5.5 14s2.7 9 5.5 14c3.3 5.9 6.7 12 6.7 18.6.1 2.6-2.1 4.7-4.7 4.7z" fill="#aeaeae" style="fill: rgb(255, 255, 255);"></path><path id="_353383520" d="m138.7 169.1c-2.6 0-4.7-2.1-4.7-4.7 0-4.2-2.7-9-5.5-14-3.3-5.9-6.7-12-6.7-18.6 0-6.7 3.4-12.8 6.7-18.7 2.8-5 5.5-9.8 5.5-14s-2.7-9-5.5-14c-3.3-5.9-6.7-12-6.7-18.7 0-2.6 2.1-4.7 4.7-4.7s4.7 2.1 4.7 4.7c0 4.2 2.7 9 5.5 14 3.3 5.9 6.7 12 6.7 18.7s-3.4 12.8-6.7 18.7c-2.8 5-5.5 9.8-5.5 14s2.7 9 5.5 14c3.3 5.9 6.7 12 6.7 18.6 0 2.6-2.1 4.7-4.7 4.7z" fill="#aeaeae" style="fill: rgb(255, 255, 255);"></path><path id="_353383664" d="m185.2 429.8c-2.6 0-4.7-2.1-4.7-4.7v-78.5c0-.5-.4-.8-.9-.8h-43.6c-.5 0-.8.4-.8.8v78.5c0 2.6-2.1 4.7-4.7 4.7s-4.7-2.1-4.7-4.7v-78.5c0-5.7 4.6-10.3 10.3-10.3h43.6c5.7 0 10.3 4.6 10.3 10.3v78.4c0 2.7-2.2 4.8-4.8 4.8z" fill="#aeaeae" style="fill: rgb(255, 255, 255);"></path><path id="_353383496" d="m157.9 345.8c-2.6 0-4.7-2.1-4.7-4.7v-18c0-2.6 2.1-4.7 4.7-4.7s4.7 2.1 4.7 4.7v18c0 2.6-2.1 4.7-4.7 4.7z" fill="#aeaeae" style="fill: rgb(255, 255, 255);"></path><path id="_353384048" d="m276.2 306.9c-2.5 0-4.6-2-4.7-4.6-.5-14.9 4.6-26 4.8-26.5.8-1.8 2.7-2.9 4.7-2.7.9.1 21.4 2.1 37.1 18.7 1.8 1.9 1.7 4.9-.2 6.7s-4.9 1.7-6.7-.2c-9.6-10.1-21.7-13.9-27.6-15.1-1.2 3.9-2.9 10.7-2.7 18.9.1 2.6-2 4.8-4.6 4.9 0-.1-.1-.1-.1-.1zm27.1 46c-.9 0-1.9-.3-2.7-.8-11.1-7.6-19.2-16.9-24-27.4-1.1-2.4 0-5.2 2.4-6.3s5.2 0 6.3 2.4c4.1 9 11.1 16.9 20.7 23.5 2.1 1.5 2.7 4.4 1.2 6.6-.9 1.3-2.4 2-3.9 2z" fill="#797979" style="fill: rgb(255, 255, 255);"></path><path id="_353383856" d="m222.5 429.8h-129.3c-21.7 0-40.5-11.5-50.4-30.8-9.3-18.3-14-38-14-58.6 0-45.8 24.6-88.6 64.3-111.7 2.3-1.3 5.2-.6 6.5 1.7s.5 5.2-1.7 6.5c-36.8 21.4-59.6 61-59.6 103.5 0 19.1 4.4 37.4 13 54.3 8.2 16.1 23.9 25.7 42 25.7h129.2c18.1 0 33.7-9.6 42-25.7 8.6-16.9 13-35.2 13-54.3 0-42.5-22.8-82.1-59.6-103.5-2.3-1.3-3-4.2-1.7-6.5s4.2-3 6.5-1.7c39.7 23.1 64.3 65.8 64.3 111.7 0 20.6-4.7 40.4-14 58.6-10 19.3-28.8 30.8-50.5 30.8z" fill="#797979" style="fill: rgb(255, 255, 255);"></path></g><path id="_353383088" d="m161.6 279.9c19.5 20.9 18 35.4 10.2 42.7-3.7 3.5-8.8 5.2-13.9 5.2s-10.2-1.7-13.9-5.2c-13.5-12.7 1.1-33 10.5-43 1.9-2.1 5.2-2 7.1.3zm3.7 35.8c4.1-3.8 4.1-12.2-7.4-25.8-11.5 13.6-11.5 22-7.4 25.8 1.9 1.8 4.6 2.6 7.4 2.6s5.5-.8 7.4-2.6z" fill="#aeaeae" style="fill: rgb(255, 255, 255);"></path></g></g></svg>